<svg xmlns="http://www.w3.org/2000/svg" viewBox="0 0 10000 10000"><defs><style>.cls-1{opacity:0.7;}.cls-2{opacity:0.4;}.cls-3{fill:#ff9727;}</style></defs><g id="_2943_CE_Borders" data-name="2943 CE Borders" class="cls-1"><g id="Layer_72" data-name="Layer 72" class="cls-2"><path class="cls-3" d="M4644.89,3791.46a22,22,0,0,0,5.79-.38c5.57-1.1,10.48-4.31,15.08-7.63a218,218,0,0,0,41.51-39.1c4.36-5.35,9-11.28,15.78-12.72,20.73-4.43,50.91,62.74,75.23,29.46,9.48-13,10.18-32.1,25.94-39.11,8.45-3.75,18.76-7.24,21.43-16.1,2.53-8.43-3.34-18.34,1-26,8-14,33.07,1.62,45.07-9.17,4.3-3.87,5.62-10.28,10-14.08,9.11-7.94,23.42.84,29.77,11.13s10.8,23.29,22,28c19.76,8.28,38.48-16.56,59.88-17.63,32.81-1.66,49.48,50.62,82.22,47.88a37.52,37.52,0,0,1,12.54-20.75,138.33,138.33,0,0,1,39.8,48.7c7,14.37,13.06,31.55,27.89,37.62,44.71,18.24,53.19-51.78,80.63-50.27,7.94.44,15.63,4.31,23.51,3.28,13.13-1.72,20.69-15.9,23.64-28.82s3.91-27.18,12.57-37.21c7.83-9.08,20.75-13,27.38-23,12.71-19.15-5.35-45.27.59-67.47,3.73-13.93,16.14-23.55,28.12-31.56s24.95-16.22,31-29.29.94-32.36-13.2-35.13c-1.83-9.29,10.9-16.83,9-26.1-.76-3.69-3.69-6.46-5.74-9.62-10.85-16.74,31.78-65.64,36.07-86.77,2.88-14.19.83-30.15-8.82-41-3.37-3.78-7.8-7.29-8.38-12.32-.39-3.28,1-6.5,2.6-9.4a69.71,69.71,0,0,1,23.88-25.52c10.53-6.66,25.09-15.09,21.42-27-1.24-4-4.6-7.36-4.9-11.57-.8-11.11,16.26-11.71,25.41-18.07,3.25-2.25,5.75-5.64,9.42-7.11,9.53-3.83,18.62,7.09,28.82,8.22,9,1,17.88-7.49,17.26-16.55-.3-4.29-2.35-8.34-2.36-12.64,0-9.53,9.63-16.14,18.77-18.84s19.27-3.51,26.73-9.44,9.24-19.92.53-23.76c18.81-11.26,111.95-74.86,114.82-13.66.18,3.65-.37,7.45.93,10.87,4.64,12.19,22.71,6.29,35.69,7.57,25,2.47,37.94,38.2,63,37.52,6.4-.17,12.43-2.87,18.21-5.63a464.66,464.66,0,0,0,68.26-40.18c3.27-2.32,6.95-4.81,10.92-4.28,11.06,1.45,8.83,21.2,19.07,25.6,8.1,3.48,16.89-5.57,25.56-4s12.66,12.69,21.15,14.72c6.69,1.6,13.24-3.13,17.66-8.39a55.67,55.67,0,0,0,12.85-32.75c.32-6.45-.46-13.17,2-19.15,3.81-9.44,14.79-14.34,25-14.15,18.16.33,29,11,47,4.6,18.93-6.74,34.57-6.32,52.39,4.89,7.42,4.66,14.42,10.35,22.83,12.82s19,.6,23.33-7c3.37-5.89,2.17-13.54,5.37-19.53,7-13.07,28.24-9.5,38.31-20.37,3.41-3.69,5.37-8.91,9.81-11.27,6.32-3.35,15.51.36,20.46-4.81,2.33-2.44,2.8-6.12,4.62-9,6.7-10.54,23.28-3,35.32-6.34,16-4.42,20.27-27.05,35.47-33.81,10.51-4.69,25.89-1.88,31.06-12.15,6.72-13.32-14.56-28.26-8.85-42,3-7.17,11.62-9.61,18.83-12.47s15-9.39,12.79-16.83c-1.46-4.86-7-8.57-6.16-13.57.55-3.22,3.58-5.32,6.35-7l14.53-9c9.44-5.87,22.87-14.9,34.22-9,4.49,2.34,8.18,6,12.44,8.72,8.66,5.62,19.82,7.82,26.38,15.8,5.49,6.66,6.46,15.83,9.62,23.86,6.53,16.62,24.36,16.1,39.46,14.13a7.81,7.81,0,0,0,4.16-1.39c1.44-1.23,1.77-3.28,2.64-5,2.42-4.61,8.44-5.7,13.63-6.14,15.49-1.31,34-3.53,40.85-17.48,3.06-6.21,3.06-13.81,7.17-19.39,3.85-5.22,10.67-7.73,14.16-13.19,12.68-19.81-20.11-41.81-27.63-56.56-5-9.86-6.21-22.47,0-31.68,3.64-5.44,9.55-9.35,12-15.41,1.57-3.81,1.62-8.11,3.27-11.88,5.56-12.65,25.59-13.27,31.27-25.86,1.28-2.84,1.7-6.09,3.55-8.59,5.37-7.27,18.75-3.7,24-11.07,4.11-5.78.33-14.6,4.25-20.51,2.85-4.29,8.89-5.6,11.65-9.95,6.46-10.13-10.22-20.53-10.89-32.52-.61-10.84,12-18.46,13-29.26,1-10.65-9.77-20.66-6.43-30.82,3-9.2,15.75-12.11,19.24-21.14,1.27-3.3,1.16-7.11,3-10.1,3.17-5.08,10.35-5.52,15.33-8.86,7-4.68,8.57-14.91,5.34-22.69-6.36-15.28-23.23-32.4-40.09-33.56-8.5-.59-17.83-.33-24.47-5.68-9.32-7.51-8.45-21.59-8.05-33.55.42-12.41-1.51-26.58-11.67-33.71-8.17-5.74-19-5-29-5.43-18.56-.75-39.85-9.11-44.06-27.21-3.12-13.37,4.34-27.85,0-40.87-4.91-14.64-22.76-20.84-38.17-19.87s-30.18,6.94-45.59,7.91-33.26-5.21-38.19-19.84c-1.25-3.69-1.62-7.78-3.86-11-5.05-7.22-17.66-7.24-20.63-15.54-.92-2.57-.68-5.59-2.22-7.85-2.8-4.14-9.26-3.1-13.54-5.69-7.65-4.63-3.45-17.31,4.26-21.83s17.34-4.85,25.06-9.37c9.18-5.39,14.11-15.68,18.51-25.37,4.82-10.61,9.73-21.64,9.66-33.29a17.73,17.73,0,0,0-1.26-7.15c-1.14-2.57-3.19-4.61-5.2-6.59l-33.39-32.9c-2.28-2.24-4.7-4.8-4.83-8-.17-4.49,4.11-7.64,7-11.09,14.77-17.75.45-50.17-12.83-63.88-4.78-4.94-7.91-13.93-2.35-18,1.74-1.26,3.94-1.65,6-2.41,12.11-4.53,13.57-24.59,2.24-30.82-3.82-2.11-8.45-2.74-11.81-5.52-5.89-4.85-5.55-13.89-9-20.68-2.92-5.67-8.66-10-9.73-16.29-2.28-13.39,17.22-21,19.32-34.46.83-5.27-1.18-11,1.13-15.83,5.37-11.18,24.72-3.83,33.45-12.63a16.06,16.06,0,0,0,4-8.42c2.33-12.54-5.86-25.76-17.64-30.65s-26-2-36,6c-7.88,6.27-14.27,15.8-24.24,17.21-27.49,3.91-39.39-38.89-26.73-57.17,4.7-6.79,11.74-11.79,15.94-18.91a29.43,29.43,0,0,0-.23-29.62c-5.68-9.31-16-14.54-25-20.59s-18-14.72-18.17-25.62c-.19-14.34,14.12-23.74,24.87-33.24a90.76,90.76,0,0,0,19.37-24.25c1.26-2.28,2.44-4.78,2.24-7.38-.34-4.2-4-7.17-6.94-10.23-9-9.5-4.16-22-8.38-32.9-5.76-15-14.85-8.49-27.21-13.44-9.61-3.86-11.08-17.78-19.93-23.15-5.48-3.32-12.43-2.54-18.65-4.09a25.57,25.57,0,0,1-18.55-20.1c-1.08-6.49-1.31-15.52-7.81-16.5-3.3-.5-6.49,1.9-7.95,4.9s-1.55,6.46-1.53,9.79a113.6,113.6,0,0,0,2,21.55c1.5,7.45,4,14.88,3.3,22.44-3.18,32.45-35.21,19.72-55,16.24-16.3-2.87-32.42,4.44-48,10s-34.14,9-47.78-.39c-3.63-2.49-6.93-5.89-11.26-6.63-6.81-1.17-12.65,4.54-19.06,7.12-9.82,3.94-21.39.17-29.44-6.7s-13.32-16.35-18.41-25.62l-1.13-2.06c-5.59-10.18-11.64-20.83-21.65-26.69-17.2-10.06-39.41-2.34-55.88,8.87s-31.25,26-50.41,31.46c-10.62,3-22.16,3-32,7.89-26.41,13.18.92,37.51-10.45,55.18-4.68,7.26-12.55,11.7-20.12,15.87l-57.82,31.81c-6.88,3.79-14.52,8.61-15.75,16.37-1.85,11.76,12.36,22.61,8.27,33.79-5.11,14-27,8.1-37.2,15.37-12,8.52-17.48,31.45-37.87,19.89-8.05-4.56-12.5-13.46-19.16-19.89s-18.84-9.62-24.4-2.22c-3.57,4.76-3,12.35-7.89,15.71-4.3,2.94-11,1.12-14.55,5-3.14,3.44-1.54,8.92-2.67,13.44-2.14,8.57-13.42,11.83-16.77,20-2.51,6.11.15,13,.55,19.59s-4,14.9-10.49,13.46c6.62,18.34,15.51,39,34.11,44.83,5.06,1.6,10.52,1.93,15.38,4.08,14.26,6.3,17.54,27,9.29,40.19s-24.3,19.69-39.79,21.46c-4.66.53-10.12,1.16-12.47,5.22-4,7,5.42,14.71,5.3,22.79-.11,7.84-8.92,12.69-11.5,20.1-2.86,8.22,2,19.14-4.41,25-2.74,2.52-6.7,3.08-10.05,4.72-7.56,3.7-11.18,12.38-17.44,18-23.25,20.92-52.89-55.43-72.09-64.66l-.06,0c-20-9.6-48.88,13-65-10.77-1.93-2.84-3.32-6.26-6.22-8.1-7.27-4.61-15.52,3.88-23.62,6.78-11.56,4.15-23.86-3.83-32.43-12.63s-16.69-19.38-28.6-22.36c-11.41-2.85-23.11,2.1-34.69,4.1s-26.32-1-29.86-12.17c-1.64-5.16-.37-10.73.08-16.13,1.57-19.17-7.41-37.45-16.15-54.59-3.1-6.07-6.33-12.31-11.55-16.69-9.78-8.21-24.11-8-36.57-5.16s-24.67,7.73-37.43,7.43c-12.1-.29-14.2-7.73-23-13.26-12.27-7.76-27.62-11.69-41.46-16.7-7.78-2.81-15.86-5.66-24.1-5-20.57,1.79-32.57,24.06-37.55,44.1-2.32,9.35-4.84,20.09-13.37,24.57-5.4,2.84-12.47,2.58-16.77,6.92-9.11,9.17,4.11,24.73.84,37.23-2.64,10.13-15.47,14.24-25.72,12.13s-19.08-8.42-28.77-12.37-22-5-29.58,2.19c-3.57,3.41-5.59,8.25-9.36,11.45-9.82,8.33-23.36,2.85-34.73,4.11-17.34,1.9-12.27,14.37-25.95,21-6,2.94-12.94,4-18.62,7.61-21.36,13.45-16.48,54.37-41,60.39-19.23,4.73-37.48-19.06-56.41-13.23-5.28,1.63-9.79,5.47-15.25,6.33-11.54,1.81-21.62-10.2-33.27-9.24-5.27.44-9.91,3.49-14.3,6.45l-15.84,10.71c-15.79,10.66-32.12,21.9-41.57,38.44-2.28,4-4.12,8.23-6.88,11.88-3.28,4.33-7.69,7.64-12,10.89-17.78,13.29-39.52,27.31-60.57,20.28-11-3.67-22.79-12.77-32.61-6.66-3.29,2.05-5.84,5.69-9.69,6.12-2.91.33-5.62-1.33-8.31-2.52-14.34-6.34-33.3,2.46-37.7,17.52-2.19,7.48-1.44,16.31-6.67,22.08-7.18,7.92-20.45,4.57-29.26-1.47s-16.92-14.46-27.55-15.57c-25.6-2.69-39,37.06-64.78,37.23-9.93.06-20.86-5.92-29.11-.37s-6.64,18.51-2.05,27.47,11.32,17.94,10,27.92c-1.42,10.88-11.85,18.15-21.91,22.53s-21.26,7.7-28.3,16.11c-4.53,5.4-7.08,12.66-13,16.46-8.35,5.35-20.05,1.73-28.71,6.56-5,2.81-8.15,8-11.07,12.93-8.59,14.57-30.11,38.56-23.18,56.67,1.41,3.7,3.77,7.31,3.42,11.26s-3.55,7.32-6.54,10.15c-11.5,10.9-26.43,22.66-41.49,17.75-5.63-1.84-10.36-5.86-16-7.52-11.06-3.24-22.64,3.22-31.18,11s-16,17.19-26.43,22c-6.18,2.86-13.11,3.92-19.09,7.17-16.39,8.9-19.39,35.07-5.44,47.45,3.4,3,7.58,5.31,10,9.14,5.81,9-1.44,21.62-11.24,26s-21,3.38-31.73,3.93-22.61,3.6-28.1,12.82c-4.26,7.14-4.43,17.47-11.78,21.37-6.3,3.35-14.32-.31-21.11,1.94-12.7,4.21-10.92,22.94-18.24,34.15-2.41,3.68-5.89,6.58-8.17,10.35-6.57,10.87,1,27.3,13.52,29.38-4.81-.6-5.8,7.09-3,11.07s7.36,7.53,6.92,12.36c-.34,3.72-3.63,6.38-6.68,8.54a330.19,330.19,0,0,1-76.8,40.24c-5,1.83-10.15,3.55-15.47,3.66-10,.21-19.18-5.27-27.69-10.56l-49.11-30.51c-8.77-5.45-20.57-10.79-28.57-4.28-3.31,2.71-5,6.87-7.53,10.32-6.64,9.09-18.86,12.69-30.08,11.84-13-1-35.28-17.62-47.26-14-3.55,1.06-7,2.64-10.45,3.9-3.28,1.19-6.43,2.66-9.68,3.91-17.77,6.85-26.2,2.57-37.79,20-7.85,11.85-12.07,29.93-27.82,33.89-8,2-16.25-1.05-24.34-2.6s-18-.85-22.49,6c-1.94,3-2.59,6.7-4.86,9.43-5.27,6.35-15.66,4-23,7.71-13.66,6.89-10,29.24-21.57,39.21-7.23,6.21-17.83,5.53-27.27,6.84s-20.32,7.72-19.15,17.18c-13.59-1.74-29.48-2.71-38.8,7.35-3.15,3.4-5.31,7.89-9.34,10.19-7.66,4.36-17.14-1.41-25.93-.85-11.77.75-19.84,12.87-21.6,24.53s.82,23.52.45,35.3-4.89,24.84-15.66,29.63c-4.4,2-9.59,2.41-13.26,5.53s-5,8.41-6,13.25L3237,2999c-1.42,6.67-2.82,13.69-.76,20.18,2.63,8.33,10.28,13.89,17.53,18.77,13,8.75,26.5,17.42,41.82,20.64,11.09,2.33,23,1.77,33.22,6.65,16.34,7.8,12.5,22.76,8.46,37-5.88,20.7-11.53,37.87-6.14,59.76,1.37,5.57,3.46,11.27,7.79,15,6.87,6,17.44,5.52,24.9,10.73,11.29,7.9,11.82,25.89,23.35,33.44,11.71,7.65,26.88.36,40.55-2.62,27.3-6,57.75,8.94,69.8,34.15,5.68,11.89,7.79,25.84,16.66,35.58,3.79,4.15,8.63,7.31,12,11.79,7.51,9.91,6.27,23.6,6,36-.25,11.38.88,25.26,11.73,31.59,5.33,3.11,11.49,4.85,16.26,8.77,9,7.43,10.71,21.1,7.09,32.21-1.91,5.84-5,12.44-1.81,17.69,4.07,6.69,15.25,5.59,19.58,12.12s-1.27,15.41.61,23c1.12,4.53,4.73,8,8.18,11.1l38.45,35.11c5.19,4.74,10.61,9.84,12.56,16.6s-1.22,15.5-8.11,16.93c18,20,33.62,42.19,45.34,66.42,2.32,4.81,4.48,10.63,1.81,15.26-2.07,3.6-6.54,5.33-8.59,9-5.33,9.43,9.48,19.45,8,30.17-.8,5.73-6.11,9.89-7.48,15.51-1.83,7.52,4.12,15,11,18.45,25.3,12.74,38.11,12.05,49,42.39q6.45,17.89,14.24,35.25c5.67,12.62,13.13,26.16,26.26,30.54,21.56,7.19,40.88-13.77,59.56-26.71a94.83,94.83,0,0,1,58-16.63c5.08.24,10.47,1,14.34,4.33,4.45,3.81,5.88,10.05,9.45,14.69,7.74,10.07,26,8.62,32-2.54,2.44-4.51,3-9.77,4-14.81,3-15.18,11.23-29.72,24.14-38.27s30.72-10.19,44-2.15c4.37,2.65,8.14,6.22,12.57,8.77,11.32,6.49,25.27,5.49,38.27,4.3,4.31-.4,8.9-.89,12.31-3.56,13-10.1,11.72-18.14,28.36-24.49,9.21-3.51,15.31-11.5,23.77-14.5,13.76-4.88,30.63.94,43.32,6.32,16,6.8,32.39,15.46,49.74,13.92,2.83-.24,5.76-.83,7.94-2.65,4.94-4.12,5.31-13.78,11.72-14.43,5.94-.61,8.3,7.24,12,11.95,7.77,10,26.89,8.51,30.45,20.64,1.64,5.57-.95,12.39,2.68,16.93,2.62,3.28,7.39,3.79,10.87,6.14,6.8,4.58,6.92,14.3,9.81,22,11.6,30.79,62.76,22.43,82.08,49.07,4.49,6.19,6.74,13.73,10.76,20.24,10.35,16.75,33.23,24.48,51.62,17.42,3.69-1.41,7.38-3.53,9.26-7,2.33-4.3,1.42-9.71,3.33-14.21,4.46-10.51,21.31-11,25.63-21.55,3.82-9.36-4.87-18.89-6.77-28.83s4.27-21,13.85-24.56c4.68-1.74,10.17-2,13.83-5.4,2.77-2.58,3.87-6.43,5.61-9.79,5.2-10.1,16.46-15.95,27.71-17.55s22.67.4,33.85,2.4c8.21,1.46,17.24,3.42,22.16,10.14,2.85,3.89,3.84,8.77,5.05,13.43C4617.69,3773.17,4629.51,3790.43,4644.89,3791.46Z"/></g><path class="cls-3" d="M6210.2,1569.17c.31,1.54.56,3.31.73,4.51.14,1,.29,2,.46,3.07a33.36,33.36,0,0,0,24.5,26.54,58.75,58.75,0,0,0,8,1.26c3.47.38,6.46.71,8.44,1.92,2.39,1.44,4.34,4.83,6.4,8.41,3.13,5.45,7,12.23,14.7,15.31a46.9,46.9,0,0,0,13.62,2.92c2.53.24,4.71.46,5.91,1.11s2.19,2.25,3.2,4.87c1.21,3.14,1.41,6.93,1.63,10.94.41,7.44.92,16.7,8.4,24.59.52.54,1.06,1.09,1.6,1.63,1.1,1.11,2.93,2.94,3.17,3.72a9.87,9.87,0,0,1-1.27,2.91A82.5,82.5,0,0,1,6292,1705c-1.57,1.38-3.23,2.77-5,4.24-10.16,8.54-22.81,19.16-22.59,35.1.17,11.83,7.48,22.65,21.73,32.16,1.75,1.17,3.55,2.31,5.28,3.41,7.05,4.48,13.7,8.7,17.36,14.69a21.32,21.32,0,0,1,.16,21.4c-1.81,3.07-4.54,5.9-7.43,8.91a74.71,74.71,0,0,0-8.19,9.51c-8.64,12.48-8.68,33.44-.09,49.82,6.71,12.81,17.61,20.15,29.92,20.15a32.67,32.67,0,0,0,4.6-.33c9.68-1.37,16.29-7.77,22.13-13.42,2.06-2,4-3.89,6-5.46a30.53,30.53,0,0,1,18.66-6.62,24,24,0,0,1,9.25,1.77c8.64,3.59,14.4,13.36,12.83,21.79a8.34,8.34,0,0,1-1.83,4.25c-2,2-6.9,2.51-11.63,3-7.81.75-18.51,1.79-23.35,11.85-2.28,4.75-2,9.5-1.82,13.31a25.7,25.7,0,0,1,0,4.74c-.58,3.7-4.18,7.56-8,11.65-5.89,6.33-13.23,14.21-11.33,25.39,1,5.85,4.38,10.21,7.1,13.72a33.9,33.9,0,0,1,3.4,4.89,35.36,35.36,0,0,1,2.23,6.69c1.42,5.28,3.18,11.85,8.83,16.51a30,30,0,0,0,9.28,4.79,28.55,28.55,0,0,1,3.77,1.56c3,1.62,3.75,5.57,3.54,8.46s-1.57,6.68-4.73,7.86c-.38.14-.87.29-1.38.46a21.43,21.43,0,0,0-6.48,3,15.15,15.15,0,0,0-6.18,11.14c-.66,7.54,3.63,14.88,7.49,18.87,12.14,12.54,23.29,40.15,12.43,53.19-.49.6-1.12,1.26-1.78,2-2.91,3.08-7.31,7.73-7,14.56.25,6.54,4.77,11,7.2,13.38l22.26,21.94,11.14,11a17.77,17.77,0,0,1,3.51,4.15,10.35,10.35,0,0,1,.56,3.94c.06,10.1-4.52,20.18-8.94,29.93-4.34,9.56-8.49,17.8-15.28,21.77-3,1.74-6.69,2.78-10.63,3.88-4.53,1.27-9.67,2.71-14.42,5.5-7.17,4.2-12.21,12.81-12.27,20.93a16.49,16.49,0,0,0,7.91,14.64,25.93,25.93,0,0,0,8.38,2.93c.83.18,2,.43,2.68.66.08.38.16.87.22,1.27a26.43,26.43,0,0,0,1.09,4.54c2.75,7.66,9.71,10.89,14.8,13.24,2.82,1.31,5.74,2.66,6.81,4.19a16.48,16.48,0,0,1,1.64,4.75c.33,1.28.69,2.72,1.19,4.18,6.31,18.74,26.9,25.39,42.62,25.39,1.22,0,2.45,0,3.65-.12,8.36-.52,16.35-2.36,24.07-4.14,7.44-1.71,14.46-3.33,21.52-3.77.86-.05,1.74-.08,2.62-.08,11.25,0,24.1,4.49,27.47,14.51,1.71,5.1.87,11.28,0,17.82-.92,6.83-2,14.57-.16,22.33,5.43,23.33,31.15,32.57,51.53,33.38,1.54.06,3.09.1,4.59.13,7.78.18,15.13.36,20.12,3.86,5.94,4.17,8.72,13.22,8.27,26.89l-.05,1.35c-.45,12.91-1,29,11.07,38.7,7.76,6.25,17.24,6.77,25.61,7.23l3.33.2c13.13.91,27.8,15.55,33.25,28.65,1.79,4.3,1.25,10.53-2.4,13a26,26,0,0,1-4.67,2.12c-4.28,1.65-9.61,3.71-13,9.14a24.38,24.38,0,0,0-3,8.55,20,20,0,0,1-.71,2.91c-.88,2.29-3.81,4.49-6.91,6.82-4.52,3.4-10.16,7.63-12.48,14.71-2.74,8.36.5,16,3.11,22.12,1.66,3.9,3.22,7.59,3,10.47s-2.64,6.41-5.15,10c-3.7,5.33-8.31,12-7.83,20.42.41,7.27,4.37,13.26,7.87,18.54,2.93,4.42,5.11,7.91,4.27,9.23a14.23,14.23,0,0,1-3.42,2.59c-2.59,1.65-5.81,3.7-8.15,7.24-3.24,4.87-3.32,10.19-3.39,14.46,0,2.31-.08,4.93-.72,5.83-.8,1.12-4.28,1.82-7.07,2.38-5.49,1.11-12.33,2.48-16.83,8.57a25,25,0,0,0-3.55,7.62,23.85,23.85,0,0,1-.86,2.44c-1.69,3.73-6.7,6.32-12,9.06-7.21,3.72-15.38,7.93-19.3,16.87a36.49,36.49,0,0,0-2.22,7.72,25.8,25.8,0,0,1-1.13,4.34c-.91,2.22-2.94,4.37-5.29,6.85a56,56,0,0,0-6,7.15c-7.26,10.85-7.43,26.08-.44,39.77,2.74,5.37,7.68,10.89,12.91,16.74,12.12,13.55,20.3,23.77,15.11,31.87-1,1.64-3.15,3.21-5.38,4.88a38.39,38.39,0,0,0-8.48,7.87c-3.28,4.46-4.56,9.39-5.69,13.75a37.49,37.49,0,0,1-2.22,6.87c-4.78,9.74-19.59,11.78-34.35,13-4.17.36-15.27,1.3-20,10.4-.4.78-.71,1.52-1,2.15a91.2,91.2,0,0,1-11.48.88c-13.52,0-17.34-5.07-19.29-10-.89-2.26-1.61-4.74-2.37-7.36-1.77-6-3.76-12.88-8.51-18.65-5.33-6.48-12.62-9.81-19.06-12.74a72.9,72.9,0,0,1-9.15-4.69c-1.45-.94-2.91-2.07-4.45-3.27a58.84,58.84,0,0,0-8.64-5.84,25.27,25.27,0,0,0-11.79-2.84c-11,0-21.4,6.53-29,11.29l-1.34.83-14.52,9c-2.87,1.78-8.83,5.49-10,12.5-1,6.25,2.26,11,4.45,14.06a15.87,15.87,0,0,1,1.93,3.14c.42,1.41-2.78,5-8.06,7.1-.85.34-1.72.66-2.59,1-7.47,2.83-16.76,6.36-20.69,15.85-4.25,10.26.86,19.92,5,27.69,3.43,6.49,5.58,10.95,4.14,13.81s-5.71,3.62-12.67,4.75c-4.58.74-9.78,1.58-14.51,3.69-9.22,4.1-14.9,12.22-19.92,19.37-4.69,6.7-8.74,12.48-14.42,14a22.83,22.83,0,0,1-6.1.64c-1.94,0-4-.11-6.1-.23s-4.46-.25-6.72-.25c-4.08,0-14.92,0-21,9.6a29,29,0,0,0-2.49,5.19,13.56,13.56,0,0,1-1.17,2.54c-.49.52-4,.62-5.45.66-3.8.12-8.52.26-13,2.61s-7.23,6.33-9.36,9.45a31.9,31.9,0,0,1-2.57,3.45c-3.09,3.34-8.77,4.92-14.79,6.59-9.06,2.52-19.32,5.37-24.7,15.45-2.21,4.14-2.87,8.4-3.45,12.15-.43,2.81-.84,5.46-1.82,7.18-2.12,3.71-7.57,4-9.19,4a17.71,17.71,0,0,1-4.94-.7c-5.22-1.53-10.14-4.83-15.35-8.33-1.77-1.18-3.6-2.41-5.47-3.59-11.29-7.09-22.38-10.54-33.88-10.54-7.87,0-16.19,1.6-25.46,4.9a25.73,25.73,0,0,1-8.75,1.57c-4.68,0-9.17-1.29-14.37-2.79-6-1.74-12.81-3.7-21-3.85h-.72c-12,0-26.48,5.93-31.82,19.16-2.37,5.88-2.41,11.85-2.44,17.13,0,1.62,0,3.15-.09,4.62a47.45,47.45,0,0,1-11,28c-3,3.56-6.45,5.86-8.84,5.86a3.25,3.25,0,0,1-.83-.1c-1.92-.46-4.14-2.73-6.5-5.15-3.65-3.73-8.19-8.38-15-9.65a19.85,19.85,0,0,0-3.63-.33c-4.78,0-9,1.62-12.75,3-2.45.94-5,1.91-6.61,1.91a2.14,2.14,0,0,1-.87-.15c-1.71-.74-3.29-5-4.57-8.48-2.4-6.5-6-16.32-16.61-17.71a16.69,16.69,0,0,0-2.13-.13c-6.26,0-11.2,3.51-14.48,5.83A456.34,456.34,0,0,1,5809,3174.1c-5.18,2.49-10.23,4.72-15,4.85h-.49c-9.4,0-17.61-7.92-26.3-16.31-9.57-9.24-20.42-19.71-35.23-21.18-1.6-.16-3.33-.24-5.29-.24-2.61,0-5.26.14-7.82.28s-4.75.25-6.91.25c-7.94,0-8.6-1.72-9-2.75a16.36,16.36,0,0,1-.37-4.86c0-1.13,0-2.29,0-3.53-1-21.83-12.6-33.85-32.59-33.85-28.55,0-69.11,25.31-88.6,37.47-2.31,1.44-4.3,2.68-5.74,3.54l-13.27,7.95,14.15,6.24c.24.1.81.35,1,1.9a10.09,10.09,0,0,1-3.28,8.28c-4,3.21-9.87,4.57-16.05,6-2.6.61-5.29,1.24-8,2-11.34,3.34-24.56,12.3-24.51,26.54a33.75,33.75,0,0,0,1.46,8.8,26.05,26.05,0,0,1,.92,4.35,7.38,7.38,0,0,1-2.2,5.36,8,8,0,0,1-5.62,2.73,5.63,5.63,0,0,1-.58,0c-2.67-.3-5.85-2-9.23-3.75-4.74-2.5-10.11-5.33-16.27-5.33a19.18,19.18,0,0,0-7.18,1.38,27.87,27.87,0,0,0-8.34,5.73,28.59,28.59,0,0,1-2.66,2.24c-2.26,1.57-5.78,2.89-9.18,4.16-4.22,1.58-8.59,3.21-12.19,5.81-6.73,4.85-7.77,11-7.46,15.25s2.16,7.54,3.66,10.17a19.24,19.24,0,0,1,1.58,3.17c1.55,5-6.91,10.87-16.48,16.88l-1.57,1a77.5,77.5,0,0,0-26.64,28.46c-2,3.65-4.17,8.55-3.52,14.15.78,6.71,5.05,11.14,8.47,14.7.68.71,1.32,1.38,1.89,2,7.07,7.91,9.66,20.63,7,34-1.39,6.85-8.8,19.19-16,31.12-14.57,24.25-28.33,47.16-19,61.59.75,1.17,1.56,2.24,2.28,3.19a14.62,14.62,0,0,1,2.34,3.69c.29,1.44-1.65,4.46-3.37,7.12-3.2,4.95-7.17,11.11-5.64,18.91l1,5.28,5.28,1c3.75.74,5.94,3.66,7.13,6a21.55,21.55,0,0,1,.36,17.93c-4.84,10.41-15.85,17.76-26.5,24.86l-1.71,1.15c-13.75,9.19-27.07,19.94-31.4,36.14-3.1,11.58-.85,23.15,1.32,34.34,2.38,12.24,4.43,22.81-.86,30.77-2.72,4.11-7.41,7.23-12.38,10.53s-10.12,6.73-14.39,11.68c-8.24,9.55-10.6,21.85-12.69,32.7-.53,2.78-1,5.39-1.62,8-2.33,10.19-8,21.5-16.88,22.66a13.44,13.44,0,0,1-1.72.11,42.32,42.32,0,0,1-9.15-1.52,62.67,62.67,0,0,0-11.17-1.92c-.43,0-.87,0-1.3,0-15.05,0-24.62,13.69-33.88,26.93-9.49,13.57-18.45,26.39-31.76,26.39a29.62,29.62,0,0,1-11.09-2.44c-9.83-4-15.11-15.35-20.71-27.35-1-2.1-2-4.27-3-6.38A146.43,146.43,0,0,0,5113,3698.9l-5.08-3.9-4.92,4.1a45.34,45.34,0,0,0-13.32,18.71c-10.51-1.75-19.88-11.24-29.75-21.24-12.27-12.42-26.16-26.5-45-26.5-.64,0-1.28,0-1.92,0-11,.55-21,6.09-29.8,11-7.71,4.28-15,8.33-21.3,8.33a13.38,13.38,0,0,1-5.29-1.07c-6-2.5-9.79-9.54-13.83-17-1.39-2.58-2.84-5.24-4.42-7.8-5.34-8.67-16.48-18-28.29-18a20.32,20.32,0,0,0-13.54,5c-3.27,2.85-5.15,6.26-6.81,9.27a20.24,20.24,0,0,1-3.26,4.89c-1,.88-2.88,2-8.12,2-2.61,0-5.42-.26-8.4-.54s-6.33-.6-9.49-.6c-3.66,0-14.79,0-20.65,10.25-3.75,6.56-2.78,13.49-2,19.05.46,3.32.9,6.46.26,8.59-1.3,4.32-7.81,7.12-14.1,9.83l-2.92,1.27c-13,5.78-17.85,17.46-22.13,27.77-2.14,5.15-4.17,10-7,13.93-4.39,6-7.64,6-8.71,6-7.23,0-17.79-10.34-26.27-18.65-10.65-10.45-20.72-20.31-31.76-20.31a17.54,17.54,0,0,0-3.7.39c-9.32,2-15.23,9.24-20,15.06l-.34.42a210,210,0,0,1-40,37.67c-3.62,2.61-7.83,5.46-12,6.27a14,14,0,0,1-2.79.28l-.92,0c-11.09-.74-20.72-15.13-24.14-28.29-.14-.53-.28-1.06-.41-1.6-1.17-4.62-2.5-9.85-5.93-14.54-7.11-9.7-19.69-11.94-27.21-13.29-8.15-1.45-17.39-3.1-26.64-3.1a69.12,69.12,0,0,0-9.74.66c-15.19,2.16-27.78,10.31-33.7,21.8-.58,1.13-1.07,2.21-1.53,3.26a15.43,15.43,0,0,1-2.42,4.34c-1,.94-3.3,1.52-5.73,2.15a52.75,52.75,0,0,0-5.44,1.61c-13.26,4.93-21.57,19.67-18.91,33.56a56.73,56.73,0,0,0,4.32,12.3c2.52,5.7,4,9.35,2.89,12s-5,4.61-9.1,6.75c-5.85,3-13.14,6.81-16.49,14.7a31.36,31.36,0,0,0-2,8.82,15.77,15.77,0,0,1-1,4.69c-.36.66-1.5,2-5.09,3.35a32.17,32.17,0,0,1-11.56,2.08c-12.37,0-24.3-6.37-30.4-16.24a80.37,80.37,0,0,1-4.17-8.15,73.78,73.78,0,0,0-6.91-12.58c-10.59-14.6-27.93-19.84-44.7-24.91-16.94-5.12-31.57-9.54-36.37-22.28a59.11,59.11,0,0,1-1.79-6.2c-1.64-6.52-3.68-14.64-11-19.6a31.91,31.91,0,0,0-5.94-3,14.54,14.54,0,0,1-3.16-1.53c-.37-.55-.33-3.24-.31-4.68a31.46,31.46,0,0,0-.93-9.51c-3.1-10.53-12.74-14.18-20.49-17.11-4.75-1.8-9.24-3.5-11.33-6.19a36.24,36.24,0,0,1-2.22-3.45c-2.76-4.62-6.94-11.62-15.42-11.62a13.79,13.79,0,0,0-1.45.08c-8.24.84-11.6,7.86-13.61,12.06-.73,1.52-1.73,3.61-2.43,4.19-.16.14-.89.59-3.51.83-1.11.09-2.24.14-3.38.14-11.79,0-23.44-5.11-35.78-10.53-2.21-1-4.5-2-6.76-2.94-9.64-4.09-22.33-8.79-35-8.79a42.14,42.14,0,0,0-14.11,2.3c-5.37,1.9-9.61,5.09-13.7,8.17-3.44,2.59-6.69,5-10.26,6.4-12.12,4.63-16.68,10.39-21.09,16a51.07,51.07,0,0,1-9.33,9.68c-1.67,1.31-5.25,1.64-8.12,1.9-4.65.43-9.58.84-14.25.84-8.28,0-14.41-1.3-19.31-4.11a58.56,58.56,0,0,1-5.8-4,77.07,77.07,0,0,0-6.59-4.63,45.48,45.48,0,0,0-23.64-6.39,52.9,52.9,0,0,0-28.89,8.71c-13.84,9.17-23.89,25-27.56,43.38-.22,1.06-.41,2.13-.6,3.2-.64,3.54-1.23,6.88-2.58,9.36-1.68,3.1-5.65,5.11-10.11,5.11-3.59,0-6.77-1.36-8.53-3.63a35,35,0,0,1-2.87-5c-1.82-3.58-3.89-7.64-7.73-10.92-5.86-5-13.31-6-19.15-6.24-1.54-.07-3.11-.11-4.67-.11a103.2,103.2,0,0,0-58.21,18.15c-3.94,2.72-7.89,5.79-11.72,8.75-11.44,8.85-23.28,18-34.34,18a19.9,19.9,0,0,1-6.42-1.05c-10.07-3.35-16.51-15.14-21.49-26.22-5.09-11.34-9.8-23-14-34.69-9.91-27.53-22.38-33-39.63-40.64-4.17-1.84-8.48-3.74-13.33-6.19-3.94-2-7.64-6.24-6.86-9.41a18.6,18.6,0,0,1,2.58-4.78c2-3,4.37-6.71,5-11.51,1.06-7.62-2.68-14.14-5.68-19.38-1.65-2.88-3.91-6.82-3.27-8a13.64,13.64,0,0,1,2.41-2.25,23.82,23.82,0,0,0,6.15-6.65c5.14-8.91.29-19-1.54-22.73a288.93,288.93,0,0,0-40.65-61.52,19.84,19.84,0,0,0,1.52-2.19,23.54,23.54,0,0,0,2.39-18.38c-2.64-9.12-9.7-15.57-14.86-20.28l-38.45-35.12c-2.33-2.13-5.23-4.78-5.81-7.11-.41-1.69,0-4.3.48-7.06.84-5.12,2-12.13-2.18-18.45-3.61-5.44-9.21-7.45-13.71-9.06-2.28-.82-5.11-1.83-5.7-2.8-.8-1.31.7-5.62,1.69-8.48.31-.87.61-1.73.88-2.57,4.22-12.93,2.88-30.59-9.61-40.86a51.06,51.06,0,0,0-11.66-6.71c-2-.93-3.95-1.81-5.65-2.8-5.66-3.3-8.06-10.86-7.76-24.51,0-1.18.06-2.38.1-3.58.35-12.31.76-26.26-7.72-37.46a56.08,56.08,0,0,0-7.89-8,57.38,57.38,0,0,1-4.6-4.33c-4.74-5.2-7.31-12.47-10-20.16a136.28,136.28,0,0,0-5.31-13.48c-11.44-23.93-37.46-40-64.73-40a65.82,65.82,0,0,0-14,1.49c-3.2.7-6.43,1.6-9.55,2.48-6.14,1.72-11.95,3.35-17,3.35a13.85,13.85,0,0,1-7.9-2.09c-3.92-2.57-6.39-7.88-9-13.51-3.19-6.87-6.8-14.65-14.14-19.78-4.57-3.2-9.67-4.67-14.16-6-4.16-1.19-7.75-2.23-10.07-4.25-2.95-2.56-4.42-7.45-5.27-10.9-4.57-18.52-.34-33.29,5-52l1.06-3.68c2.41-8.51,4.36-16.18,3.68-23.8-.91-10.24-6.43-17.84-16.4-22.6-7.89-3.76-16.09-4.72-24-5.65-3.86-.45-7.51-.87-11-1.61-13.62-2.86-26.22-10.83-39-19.45-6.55-4.41-12.57-8.84-14.38-14.54-1.47-4.65-.18-10.74,1-16.11l2.73-12.85,2.73-12.86c.65-3.06,1.54-7.24,3.39-8.81,1.09-.93,3.22-1.57,5.47-2.26a48.81,48.81,0,0,0,5.86-2.06c12.22-5.44,19.85-19.16,20.4-36.68a150.42,150.42,0,0,0-.53-15.15c-.47-6.76-.91-13.15,0-19.22,1.26-8.35,6.92-17.27,14.2-17.74l.74,0a39.05,39.05,0,0,1,7.52,1.12,50.55,50.55,0,0,0,10.4,1.41,21.08,21.08,0,0,0,10.72-2.69c4.12-2.34,6.72-5.84,8.81-8.64a38.79,38.79,0,0,1,2.44-3.07c3.72-4,9.59-5.89,18.47-5.89a110.07,110.07,0,0,1,13.45,1l10.22,1.31-1.27-10.23c-.45-3.63,6.25-7.42,12.31-8.27,1.94-.26,4-.45,6.13-.64,8.31-.73,17.71-1.57,25.26-8,7.2-6.19,9.75-15.09,12-23,2.33-8.13,4-13.21,7.95-15.19,1.84-.92,4.59-1.32,7.51-1.74,5.79-.84,13-1.87,18.08-8a26.61,26.61,0,0,0,4-7.22,19.67,19.67,0,0,1,1.38-2.91c1.78-2.72,6.29-3.12,8.81-3.12a29.3,29.3,0,0,1,5.48.54c1.69.32,3.41.72,5.23,1.15,4.77,1.11,9.7,2.25,15,2.25a30.59,30.59,0,0,0,7.59-.9c15.07-3.79,21.8-17,27.2-27.59a102.74,102.74,0,0,1,5.34-9.64c6.38-9.62,10.4-10.56,19.21-12.64a107,107,0,0,0,14.79-4.35c1.51-.59,3-1.2,4.39-1.8,1.77-.74,3.45-1.45,5.12-2.05,1.46-.53,2.86-1.09,4.22-1.63,2-.81,4-1.58,5.81-2.13a5,5,0,0,1,1.47-.18c4.88,0,13,3.65,20.13,6.86,8.14,3.67,15.83,7.13,22.76,7.65,1.26.1,2.55.15,3.82.15,13.9,0,26.36-5.7,33.33-15.24,1-1.43,1.9-2.83,2.72-4.18a19.36,19.36,0,0,1,3.4-4.65,5.54,5.54,0,0,1,3.81-1.2c2.61,0,7.42,1.05,15.48,6.06l24.56,15.26,24.55,15.26c8,5,19,11.77,31.37,11.77h.71c6.56-.13,12.52-2.12,18.06-4.15a337.5,337.5,0,0,0,78.66-41.22c2.79-2,9.33-6.58,10-14.34.63-6.88-3.39-11.66-6.33-15.15-.74-.88-1.44-1.72-2-2.46a2.24,2.24,0,0,1-.11-1.06,4.33,4.33,0,0,1-4,2.47l-.47,0,2.3-15.83c-3.22-.53-6.27-3.15-8-6.84s-1.71-7.71,0-10.5a33.84,33.84,0,0,1,3.42-4.33,49,49,0,0,0,4.6-5.79c3.43-5.26,5.15-11.45,6.66-16.92,2.19-7.89,3.72-12.79,7.4-14a10.61,10.61,0,0,1,3.19-.37c1.11,0,2.32.07,3.61.15,1.46.09,3,.19,4.55.19a23.17,23.17,0,0,0,11-2.43c7.53-4,10.06-11.47,12.09-17.47a38.74,38.74,0,0,1,2.8-6.88c4.18-7,15.35-8.59,21.64-8.92,2.27-.11,4.57-.16,7-.2,9.1-.17,18.51-.35,27.59-4.42a31.53,31.53,0,0,0,17-19.21,22,22,0,0,0-2.31-18.43c-2.43-3.79-5.67-6.27-8.52-8.45-1.06-.82-2.07-1.59-2.93-2.35-4.6-4.08-6.85-10.86-6-18.13s4.56-13.36,10-16.3a52,52,0,0,1,9-3.44,79.14,79.14,0,0,0,9.58-3.49c8.92-4.12,15.55-10.71,21.95-17.09,2.23-2.21,4.33-4.3,6.5-6.27,6.94-6.28,14-9.74,19.77-9.74a13.68,13.68,0,0,1,3.8.53,35.49,35.49,0,0,1,6.67,3.17,51.62,51.62,0,0,0,9.13,4.28,31.13,31.13,0,0,0,9.72,1.55c15.51,0,29.39-11.27,39.76-21.09,3.12-3,8.35-7.92,9-15.25.45-5-1.4-9.13-2.89-12.42-.39-.87-.75-1.68-1-2.41-4-10.39,7.32-26.92,15.57-39,2.62-3.83,5.09-7.45,7-10.75,2.26-3.83,4.82-8.18,8.08-10,2.65-1.48,6.56-1.76,10.69-2.06,5.83-.42,12.42-.9,18.43-4.75,5.3-3.4,8.38-8.29,11.09-12.62a50.33,50.33,0,0,1,3.74-5.44c4.47-5.34,11.79-8.32,19.54-11.49,1.91-.77,3.89-1.58,5.83-2.42,15.87-6.92,25.08-16.9,26.64-28.84,1.38-10.63-3.64-19.6-8.06-27.52-1-1.77-1.92-3.43-2.77-5.08-3.22-6.28-4.36-14.64-.6-17.18a6.71,6.71,0,0,1,4.08-1,47.53,47.53,0,0,1,8.46,1.19,60.44,60.44,0,0,0,11.94,1.54h.22c15.78-.11,27.19-11.34,37.25-21.25,8.41-8.29,16.35-16.11,25-16.11a15.16,15.16,0,0,1,1.64.09c5.83.61,11.38,4.85,17.25,9.34,2.12,1.62,4.32,3.3,6.6,4.87,7,4.78,15.13,7.52,22.37,7.52,7,0,13-2.51,17.34-7.27,5.14-5.66,6.2-12.54,7.14-18.61a52.92,52.92,0,0,1,1.29-6.6c2.27-7.77,11-13.85,19.9-13.85a16.91,16.91,0,0,1,6.89,1.4l1.26.59a22,22,0,0,0,9.52,2.65,14.8,14.8,0,0,0,1.65-.09c5-.56,8.35-3.43,10.81-5.53a20.21,20.21,0,0,1,2.21-1.74,5.64,5.64,0,0,1,3.15-.86c3.57,0,8.47,2.23,13.21,4.39a97.88,97.88,0,0,0,9.49,3.91,44.89,44.89,0,0,0,14.24,2.29c19.23,0,37.15-11.41,53.66-23.74,4.52-3.38,9.64-7.21,13.62-12.48a63.86,63.86,0,0,0,5.5-9.14c.67-1.26,1.29-2.45,1.94-3.59,8.72-15.26,24.86-26.16,39.1-35.78l8.63-5.83,7.22-4.88c3.36-2.26,7.16-4.83,10.48-5.1.23,0,.45,0,.68,0,3.3,0,7.21,1.92,11.35,3.94,5.28,2.6,11.27,5.53,18.17,5.53a23.43,23.43,0,0,0,3.65-.28c4.41-.69,8-2.57,11.2-4.22a32.62,32.62,0,0,1,5.17-2.36,12.85,12.85,0,0,1,3.89-.57c5.6,0,12,3.16,18.74,6.52,8.19,4.06,16.66,8.26,26.17,8.26a30,30,0,0,0,7.16-.86c17.37-4.26,23.19-20.78,28.32-35.36,3.86-11,7.5-21.29,15-26a42.6,42.6,0,0,1,8.93-3.73,75.43,75.43,0,0,0,8.92-3.45c8.12-3.94,11.51-9.61,14-13.75s3.52-5.87,9.35-6.51a27.32,27.32,0,0,1,3-.15c2.22,0,4.59.19,7.11.38,2.74.22,5.58.44,8.49.44,5.4,0,13.4-.69,20.41-6.63a37.06,37.06,0,0,0,6.41-7.56,27.83,27.83,0,0,1,3.3-4.2c2.14-2,5.25-3.09,9.25-3.09a32.26,32.26,0,0,1,11.78,2.51c3.19,1.31,6.34,2.92,9.68,4.63,6.34,3.25,12.89,6.61,20.5,8.17a34.49,34.49,0,0,0,7,.71c13.88,0,25.16-7.49,28.07-18.64,2-7.5-.09-14.85-1.9-21.34s-2.77-10.51-1-12.28c1.06-1.07,3.54-1.72,6.16-2.42a39.42,39.42,0,0,0,8.66-3.06c11.54-6.06,14.72-18.87,17.28-29.17l.13-.55c2.54-10.18,6.65-19.43,11.58-26,5.5-7.36,11.86-11.4,18.91-12,.62-.05,1.27-.08,1.92-.08,6.07,0,12.81,2.44,18.75,4.59,3.49,1.26,7.09,2.46,10.58,3.62,10.27,3.43,20.9,7,29.34,12.31a39,39,0,0,1,5.89,4.85c4.45,4.18,10,9.38,21.15,9.64l1.3,0c9.75,0,18.86-2.51,27.66-4.94,3.59-1,7-1.93,10.41-2.7a59.56,59.56,0,0,1,12.94-1.57c7.11,0,12.74,1.7,16.73,5s6.85,8.9,9.56,14.2c9.48,18.6,16.63,34.11,15.3,50.31-.08,1.06-.21,2.16-.34,3.32-.56,4.79-1.18,10.22.61,15.87,3.57,11.31,15.32,18.34,30.65,18.34a48.62,48.62,0,0,0,8.2-.69c3.44-.6,6.82-1.42,10.08-2.21,5.63-1.36,10.95-2.64,15.88-2.64a22.18,22.18,0,0,1,5.43.62c7.67,1.92,13.9,8.58,20.5,15.64,1.4,1.5,2.85,3,4.31,4.55,7.19,7.38,18.51,16.17,31.62,16.17a27.25,27.25,0,0,0,9.24-1.6,55.56,55.56,0,0,0,8.65-4.24c2.69-1.52,6-3.41,7.65-3.41a.44.44,0,0,1,.33.1,13.64,13.64,0,0,1,2.18,3.1c.5.84,1.07,1.79,1.71,2.74,6.77,10,16.29,14.8,29.09,14.8a107.9,107.9,0,0,0,16.14-1.62,95.32,95.32,0,0,1,13.75-1.44,20.7,20.7,0,0,1,9.14,1.73l.09,0c5.17,2.48,14.29,16,21.62,26.81,14.06,20.77,28.59,42.26,45.35,42.26a20.47,20.47,0,0,0,13.94-5.67,60.62,60.62,0,0,0,7.52-8.6c2.78-3.62,5.17-6.74,8.09-8.17a27.75,27.75,0,0,1,2.82-1.11,24.81,24.81,0,0,0,9.13-4.92c6.49-6,6.23-14.25,6.05-20.3-.1-3.11-.19-6,.49-8,.63-1.8,2.35-3.87,4.16-6.06,3.43-4.12,7.68-9.24,7.79-16.55.08-5.4-2.25-10-4.12-13.8a25.3,25.3,0,0,1-2.16-5.11c1.14-.68,4.76-1.09,6.35-1.28,20.5-2.33,37.15-11.5,45.67-25.16a40,40,0,0,0,4-32c-2.82-9.17-8.79-16.17-16.79-19.71a51.86,51.86,0,0,0-10.64-3.06,57.18,57.18,0,0,1-5.57-1.33c-12.87-4.06-20.39-17.84-26.08-32.16a17.49,17.49,0,0,0,2.08-1.88,23.56,23.56,0,0,0,5.95-17.11,65.42,65.42,0,0,0-.87-6.89c-.62-3.77-1.15-7-.26-9.18.82-2,3.3-4.05,5.93-6.22,4.2-3.48,9.43-7.8,11.21-14.88a31.51,31.51,0,0,0,.74-6.91,26.66,26.66,0,0,1,.18-3,27.43,27.43,0,0,1,2.83-.5c3-.43,6.72-1,10.21-3.35,5.16-3.53,6.8-9,8-12.94a17.89,17.89,0,0,1,1.78-4.58c.24-.32.8-1.07,2.85-1.07a15.25,15.25,0,0,1,9.59,4.25,71.07,71.07,0,0,1,6.11,7.07c3.87,4.87,8.25,10.39,14.66,14,5,2.84,9.7,4.22,14.31,4.22,11.72,0,18.68-8.87,24.27-16,2.7-3.45,5.26-6.7,7.88-8.57s7.55-2.45,12.45-3.11c9.67-1.31,22.9-3.11,27.63-16,3.35-9.16-.81-17.37-4.15-24-2.16-4.28-4.21-8.32-3.74-11.32.64-4,6-7.47,11.71-10.61l33.27-18.31,24.55-13.51c7.62-4.19,17.1-9.41,23-18.54,6.64-10.31,3.92-21.62,1.74-30.72-3-12.51-3.58-17.07,5.56-21.63,5.07-2.53,11.09-3.55,17.46-4.62a122.57,122.57,0,0,0,13.17-2.74c15.32-4.33,27.68-13.77,39.64-22.9,4.48-3.41,8.71-6.64,13.1-9.63,11.52-7.84,23.37-12.16,33.37-12.16a27.26,27.26,0,0,1,14,3.57c8.39,4.91,13.85,14.86,18.68,23.64l1.13,2.06c5.14,9.36,11,20,20.23,27.86,7.61,6.49,17.13,10.2,26.12,10.2a30.73,30.73,0,0,0,11.49-2.17,57.64,57.64,0,0,0,7-3.57c2.68-1.54,5.45-3.13,7.25-3.13a2.45,2.45,0,0,1,.48,0c1.3.23,3.21,1.69,5.05,3.1,1,.74,1.95,1.5,3,2.24,7,4.81,15.47,7.24,25.2,7.24,8.79,0,18.52-1.93,29.77-5.9,2.18-.77,4.38-1.57,6.5-2.35,10.91-4,21.21-7.79,31.29-7.79a35.56,35.56,0,0,1,6.19.53c2.67.47,5.65,1.13,8.81,1.84,7.69,1.72,16.41,3.67,24.62,3.67,18.37,0,29-10,30.9-28.85.69-7.06-.88-13.77-2.27-19.68-.42-1.78-.81-3.45-1.14-5.11a104.3,104.3,0,0,1-1.81-20,27.91,27.91,0,0,1,.21-4.39m.39-10.31c-3,0-5.74,2.24-7.07,5-1.46,3-1.55,6.46-1.53,9.79a113.6,113.6,0,0,0,2,21.55c1.5,7.45,4,14.88,3.3,22.44-1.67,17.05-11.31,21.63-22.94,21.63-10.51,0-22.65-3.74-32-5.39a43.2,43.2,0,0,0-7.58-.65c-13.71,0-27.26,5.94-40.45,10.6-8.58,3-18.05,5.44-27.11,5.44-7.4,0-14.53-1.61-20.67-5.83-3.63-2.49-6.93-5.89-11.26-6.63a10.48,10.48,0,0,0-1.84-.16c-6,0-11.39,4.93-17.22,7.28a22.71,22.71,0,0,1-8.51,1.6c-7.49,0-15.12-3.35-20.93-8.3-8.05-6.86-13.32-16.35-18.41-25.62l-1.13-2.06c-5.59-10.18-11.64-20.83-21.65-26.69a35.12,35.12,0,0,0-18-4.67c-13,0-26.76,6-37.87,13.55-16.47,11.21-31.25,26-50.42,31.45-10.61,3-22.15,3-32,7.89-26.41,13.17.92,37.51-10.46,55.18-4.67,7.26-12.54,11.7-20.11,15.87l-57.82,31.81c-6.88,3.79-14.52,8.61-15.75,16.37-1.85,11.76,12.36,22.61,8.27,33.79-5.11,14-27,8.1-37.2,15.37-9.65,6.86-15.1,23.08-27.51,23.08-3,0-6.4-.94-10.36-3.19-8.05-4.56-12.5-13.46-19.16-19.89-3.95-3.81-9.85-6.49-15.15-6.49a11.08,11.08,0,0,0-9.25,4.27c-3.57,4.76-3,12.35-7.89,15.71-4.3,2.94-11,1.12-14.55,5-3.14,3.44-1.54,8.92-2.67,13.44-2.14,8.57-13.42,11.83-16.77,20-2.51,6.11.15,13,.55,19.59.36,6.08-3.38,13.62-9,13.62a6.8,6.8,0,0,1-1.46-.16c6.62,18.33,15.51,39,34.11,44.83,5.06,1.6,10.52,1.93,15.38,4.08,14.26,6.3,17.54,27,9.29,40.19s-24.3,19.69-39.79,21.46c-4.66.52-10.12,1.16-12.47,5.22-4,7,5.42,14.71,5.3,22.79-.11,7.84-8.92,12.69-11.5,20.1-2.86,8.22,2,19.14-4.41,25-2.74,2.52-6.7,3.08-10.05,4.72-7.56,3.7-11.18,12.38-17.44,18a12.64,12.64,0,0,1-8.59,3.62c-21.6,0-46.6-60.15-63.5-68.28l-.06,0a28.81,28.81,0,0,0-12.64-2.53c-9.68,0-20.21,3.06-29.89,3.06-8.53,0-16.4-2.37-22.47-11.3-1.93-2.84-3.32-6.26-6.22-8.1a8.42,8.42,0,0,0-4.62-1.34c-6.05,0-12.57,5.82-19,8.12a19.18,19.18,0,0,1-6.55,1.13c-9.49,0-18.92-6.61-25.88-13.76-8.58-8.79-16.69-19.38-28.6-22.36a30.29,30.29,0,0,0-7.37-.86c-9,0-18.22,3.39-27.32,5a40.38,40.38,0,0,1-6.84.58c-9.93,0-20.15-3.66-23-12.75-1.64-5.16-.37-10.73.08-16.13,1.57-19.17-7.41-37.45-16.15-54.59-3.1-6.07-6.33-12.31-11.55-16.69-6.05-5.09-13.85-6.93-21.87-6.93a67.55,67.55,0,0,0-14.7,1.77c-12.08,2.72-23.95,7.44-36.31,7.44h-1.12c-12.1-.29-14.2-7.73-23-13.26-12.27-7.76-27.62-11.69-41.46-16.7-7-2.51-14.15-5.06-21.48-5.06-.87,0-1.74,0-2.62.11-20.57,1.79-32.57,24.06-37.55,44.1-2.32,9.35-4.84,20.09-13.37,24.57-5.4,2.84-12.47,2.58-16.77,6.92-9.11,9.17,4.11,24.73.84,37.23-2.19,8.41-11.4,12.67-20.33,12.67a26.71,26.71,0,0,1-5.39-.54c-10.25-2.11-19.08-8.42-28.77-12.37a40,40,0,0,0-14.79-3.11c-5.53,0-10.82,1.5-14.79,5.3-3.57,3.41-5.59,8.25-9.36,11.45-4.49,3.81-9.75,4.73-15.23,4.73-5.17,0-10.52-.82-15.6-.82a35.86,35.86,0,0,0-3.9.2c-17.34,1.91-12.27,14.37-25.95,21-6,2.93-12.94,4-18.62,7.61-21.36,13.45-16.48,54.37-41,60.39a22,22,0,0,1-5.25.63c-15.22,0-29.91-14.78-44.91-14.78a21.17,21.17,0,0,0-6.25.92c-5.28,1.63-9.79,5.47-15.25,6.33a16.49,16.49,0,0,1-2.41.18c-10.12,0-19.24-9.47-29.52-9.47-.44,0-.89,0-1.34.05-5.27.44-9.91,3.49-14.3,6.45l-15.84,10.71c-15.79,10.66-32.12,21.9-41.57,38.44-2.28,4-4.12,8.23-6.88,11.88-3.28,4.33-7.69,7.64-12,10.89-14.5,10.83-31.63,22.15-48.87,22.15a36.84,36.84,0,0,1-11.7-1.87c-8.34-2.79-17.17-8.71-25.24-8.71a13.59,13.59,0,0,0-7.37,2c-3.29,2.05-5.84,5.69-9.69,6.12a6.45,6.45,0,0,1-.76,0c-2.63,0-5.1-1.47-7.55-2.56a25,25,0,0,0-10.12-2.08c-12,0-24.17,7.92-27.58,19.6-2.19,7.48-1.44,16.31-6.67,22.08a14.83,14.83,0,0,1-11.42,4.65c-6.07,0-12.71-2.6-17.84-6.12-8.82-6-16.92-14.46-27.55-15.57a23.11,23.11,0,0,0-2.47-.13c-24,0-37.41,37.19-62.31,37.36h-.16c-6.73,0-13.91-2.73-20.4-2.73a14.77,14.77,0,0,0-8.55,2.37c-8.34,5.62-6.64,18.5-2.05,27.46s11.32,17.94,10,27.92c-1.42,10.88-11.85,18.15-21.91,22.53s-21.26,7.7-28.3,16.11c-4.53,5.4-7.08,12.66-13,16.46-8.35,5.35-20.05,1.73-28.71,6.56-5,2.81-8.15,8-11.07,12.93-8.59,14.57-30.11,38.56-23.18,56.67,1.41,3.7,3.77,7.31,3.42,11.26s-3.55,7.32-6.54,10.15c-9.65,9.14-21.72,18.9-34.25,18.9a23.19,23.19,0,0,1-7.24-1.15c-5.63-1.84-10.36-5.86-16-7.52a21.25,21.25,0,0,0-6-.86c-9.11,0-18.15,5.48-25.14,11.81-8.55,7.74-16,17.19-26.43,22-6.18,2.86-13.11,3.92-19.09,7.17-16.39,8.9-19.39,35.07-5.44,47.45,3.4,3,7.58,5.31,10,9.14,5.81,9-1.44,21.62-11.24,26s-21,3.38-31.73,3.93-22.61,3.6-28.1,12.82c-4.26,7.14-4.43,17.47-11.77,21.37a15.16,15.16,0,0,1-7.25,1.5c-2.68,0-5.45-.34-8.16-.34a18,18,0,0,0-5.71.78c-12.7,4.21-10.92,22.94-18.24,34.15-2.41,3.68-5.89,6.58-8.17,10.35-6.57,10.87,1,27.3,13.52,29.38a3.12,3.12,0,0,0-.52,0c-4.36,0-5.18,7.28-2.51,11.11,2.77,4,7.36,7.53,6.92,12.36-.34,3.72-3.63,6.38-6.68,8.54a330.19,330.19,0,0,1-76.8,40.24c-5,1.83-10.15,3.55-15.47,3.66h-.55c-9.81,0-18.78-5.37-27.14-10.57l-49.11-30.51c-5.89-3.66-13.15-7.27-19.71-7.27a13.61,13.61,0,0,0-8.86,3c-3.31,2.69-5,6.86-7.53,10.31-6,8.23-16.59,12-26.87,12q-1.62,0-3.21-.12c-11.78-.9-31-14.53-43.5-14.54a13,13,0,0,0-3.76.51c-3.55,1.06-7,2.64-10.45,3.9-3.28,1.19-6.43,2.66-9.68,3.91-17.77,6.85-26.2,2.57-37.79,20-7.85,11.85-12.07,29.93-27.82,33.89a22.94,22.94,0,0,1-5.64.66c-6.2,0-12.5-2.07-18.7-3.26a37.56,37.56,0,0,0-7-.68c-6.16,0-12.22,1.74-15.5,6.72-1.94,3-2.59,6.7-4.86,9.43-5.27,6.35-15.66,4-23,7.71-13.66,6.89-10,29.24-21.57,39.21-7.23,6.21-17.83,5.53-27.27,6.84s-20.32,7.72-19.15,17.18a114.66,114.66,0,0,0-14.46-1.11c-9.28,0-18.22,1.85-24.34,8.46-3.15,3.4-5.31,7.89-9.34,10.19a13.34,13.34,0,0,1-6.76,1.64c-5.72,0-11.95-2.53-17.92-2.53-.42,0-.84,0-1.25,0-11.77.75-19.84,12.87-21.6,24.53s.82,23.52.45,35.3-4.89,24.84-15.66,29.63c-4.4,2-9.59,2.41-13.26,5.53s-5,8.41-6,13.25L3237,2999c-1.42,6.67-2.82,13.69-.76,20.18,2.63,8.33,10.28,13.89,17.53,18.77,13,8.75,26.5,17.42,41.82,20.64,11.09,2.33,23,1.77,33.22,6.65,16.34,7.8,12.5,22.76,8.46,37-5.88,20.7-11.53,37.87-6.14,59.76,1.37,5.57,3.46,11.27,7.79,15,6.87,6,17.44,5.52,24.9,10.73,11.29,7.9,11.82,25.89,23.35,33.44a21.88,21.88,0,0,0,12.28,3.39c9.08,0,19-4,28.27-6a57.86,57.86,0,0,1,12.29-1.3c23.64,0,47.24,14,57.51,35.46,5.68,11.89,7.79,25.84,16.66,35.58,3.79,4.16,8.63,7.31,12,11.78,7.51,9.92,6.27,23.61,6,36-.25,11.38.88,25.26,11.73,31.59,5.33,3.11,11.49,4.85,16.26,8.77,9,7.43,10.71,21.1,7.09,32.21-1.91,5.84-5,12.44-1.81,17.69,4.07,6.69,15.25,5.59,19.58,12.12s-1.27,15.41.61,23c1.12,4.53,4.73,8,8.18,11.1l38.45,35.11c5.19,4.74,10.61,9.84,12.56,16.6s-1.22,15.5-8.11,16.93c18,20,33.62,42.19,45.34,66.42,2.32,4.81,4.48,10.63,1.81,15.26-2.07,3.61-6.54,5.33-8.59,9-5.33,9.43,9.48,19.45,8,30.17-.8,5.73-6.11,9.89-7.48,15.51-1.83,7.52,4.12,15,11,18.45,25.3,12.74,38.11,12.05,49,42.39q6.45,17.89,14.24,35.25c5.67,12.62,13.13,26.16,26.26,30.54a28,28,0,0,0,9,1.46c18,0,34.55-17.05,50.61-28.17a95,95,0,0,1,53.66-16.73c1.43,0,2.86,0,4.29.1,5.08.24,10.47,1,14.34,4.33,4.45,3.81,5.88,10.05,9.45,14.69s9.17,6.76,14.87,6.76c6.89,0,13.83-3.2,17.15-9.3,2.44-4.51,3-9.77,4-14.81,3-15.18,11.23-29.72,24.14-38.27a44.79,44.79,0,0,1,24.47-7.38,37.35,37.35,0,0,1,19.48,5.23c4.37,2.65,8.14,6.22,12.57,8.77,7,4,15.08,5.17,23.29,5.17,5,0,10.05-.42,15-.87,4.31-.4,8.9-.89,12.31-3.56,13-10.1,11.72-18.14,28.36-24.49,9.21-3.51,15.31-11.5,23.77-14.5a34.12,34.12,0,0,1,11.44-1.84c10.95,0,22.55,4.2,31.88,8.16,14.76,6.27,29.82,14.1,45.66,14.1,1.35,0,2.71-.05,4.08-.18,2.83-.25,5.76-.83,7.94-2.65,4.94-4.12,5.31-13.78,11.72-14.43.22,0,.43,0,.64,0,5.47,0,7.79,7.46,11.33,12,7.77,10,26.89,8.51,30.45,20.64,1.64,5.57-.95,12.39,2.68,16.93,2.62,3.28,7.39,3.79,10.87,6.14,6.8,4.58,6.92,14.3,9.81,22,11.6,30.79,62.76,22.43,82.08,49.07,4.49,6.19,6.74,13.73,10.76,20.24,7.75,12.55,22.54,20,37.2,20a40.21,40.21,0,0,0,14.42-2.61c3.69-1.41,7.38-3.53,9.26-7,2.33-4.29,1.42-9.7,3.33-14.2,4.46-10.51,21.31-11,25.63-21.55,3.82-9.36-4.87-18.89-6.77-28.83s4.27-21,13.85-24.56c4.68-1.74,10.17-2,13.83-5.4,2.77-2.58,3.87-6.43,5.61-9.79,5.2-10.1,16.46-15.95,27.71-17.55a60.8,60.8,0,0,1,8.62-.58c8.43,0,16.89,1.49,25.23,3s17.24,3.42,22.16,10.14c2.85,3.89,3.84,8.77,5.05,13.43,4.16,16,16,33.22,31.36,34.25.48,0,1,.05,1.45.05a22.4,22.4,0,0,0,4.34-.43c5.57-1.1,10.48-4.31,15.08-7.63a218,218,0,0,0,41.51-39.1c4.36-5.35,9-11.28,15.78-12.72a9.85,9.85,0,0,1,2-.21c16.37,0,38,39,58,39,5.21,0,10.31-2.64,15.17-9.29,9.48-13,10.18-32.1,25.94-39.11,8.45-3.75,18.76-7.24,21.43-16.1,2.53-8.43-3.34-18.34,1-26,2.86-5,7.89-6.22,13.71-6.22,5.63,0,12,1.14,17.89,1.14,5.12,0,9.88-.86,13.47-4.09,4.3-3.87,5.62-10.28,10-14.08a12.29,12.29,0,0,1,8.28-3.07c8,0,16.86,6.7,21.49,14.2,6.34,10.29,10.8,23.29,22,28a21.37,21.37,0,0,0,8.38,1.69c16.76,0,33.15-18.4,51.5-19.32.51,0,1,0,1.52,0,31,0,47.59,48,78.22,48,.82,0,1.64,0,2.48-.11a37.52,37.52,0,0,1,12.54-20.75,138.33,138.33,0,0,1,39.8,48.7c7,14.37,13.06,31.55,27.89,37.62a37.39,37.39,0,0,0,14.12,3c32.41,0,42-53.32,65.64-53.32.29,0,.58,0,.87,0,7,.38,13.83,3.45,20.76,3.45a19.64,19.64,0,0,0,2.75-.18c13.13-1.71,20.69-15.89,23.64-28.81s3.91-27.18,12.57-37.21c7.83-9.08,20.75-13,27.38-23,12.71-19.15-5.35-45.27.59-67.47,3.73-13.93,16.14-23.55,28.12-31.56s24.95-16.22,31-29.29.94-32.36-13.2-35.13c-1.83-9.29,10.9-16.83,9-26.1-.76-3.69-3.69-6.46-5.74-9.62-10.85-16.74,31.78-65.64,36.07-86.77,2.88-14.19.83-30.15-8.82-41-3.37-3.78-7.8-7.29-8.38-12.32-.39-3.28,1-6.5,2.6-9.4a69.71,69.71,0,0,1,23.88-25.52c10.53-6.66,25.09-15.09,21.42-27-1.24-4-4.6-7.36-4.9-11.57-.8-11.11,16.26-11.71,25.41-18.07,3.25-2.25,5.75-5.64,9.42-7.11a11.07,11.07,0,0,1,4.2-.81c8,0,15.93,8.07,24.62,9a14.44,14.44,0,0,0,1.46.08c8.5,0,16.39-8.06,15.8-16.63-.3-4.29-2.35-8.34-2.36-12.64,0-9.53,9.63-16.14,18.77-18.84s19.27-3.51,26.73-9.44,9.24-19.92.53-23.76c12.86-7.7,60.49-39.88,90.23-39.88,13.76,0,23.68,6.87,24.59,26.22.18,3.65-.37,7.45.93,10.87,2.52,6.61,9,7.9,16.46,7.9,4.76,0,9.93-.53,14.73-.53,1.55,0,3.06.06,4.5.2,24.73,2.45,37.7,37.53,62.32,37.53h.7c6.4-.17,12.43-2.87,18.21-5.63a464.66,464.66,0,0,0,68.26-40.18c3-2.11,6.28-4.35,9.84-4.35a7.83,7.83,0,0,1,1.08.07c11.06,1.45,8.83,21.2,19.07,25.6a10.06,10.06,0,0,0,4,.8c6.25,0,12.83-5,19.36-5a12.24,12.24,0,0,1,2.17.19c8.58,1.6,12.66,12.69,21.15,14.72a11.3,11.3,0,0,0,2.69.32c5.72,0,11.15-4.16,15-8.71a55.67,55.67,0,0,0,12.85-32.75c.32-6.45-.46-13.17,2-19.15,3.74-9.26,14.39-14.16,24.4-14.16h.57c14,.26,23.63,6.64,35.54,6.64a33.62,33.62,0,0,0,11.44-2c8-2.86,15.5-4.43,22.77-4.43,9.85,0,19.37,2.87,29.62,9.32,7.42,4.66,14.42,10.35,22.83,12.82a25.76,25.76,0,0,0,7.19,1c6.52,0,13-2.5,16.14-8,3.37-5.89,2.17-13.54,5.37-19.53,7-13.07,28.24-9.5,38.31-20.37,3.41-3.69,5.37-8.91,9.81-11.27,6.32-3.35,15.51.37,20.46-4.81,2.33-2.44,2.8-6.12,4.62-9,3.11-4.89,8.35-5.89,14.27-5.89,4.11,0,8.54.48,12.82.48a31.16,31.16,0,0,0,8.23-.93c16-4.42,20.27-27.05,35.47-33.81,10.51-4.69,25.88-1.88,31.06-12.15,6.72-13.32-14.56-28.26-8.85-42,3-7.17,11.62-9.61,18.83-12.47s15-9.39,12.79-16.83c-1.46-4.87-7-8.57-6.16-13.57.55-3.22,3.58-5.32,6.35-7l14.53-9c7.27-4.52,16.9-10.92,26.13-10.92a17.13,17.13,0,0,1,8.09,1.94c4.49,2.34,8.18,6,12.44,8.72,8.66,5.62,19.82,7.82,26.38,15.8,5.49,6.66,6.46,15.83,9.62,23.86,4.74,12.07,15.44,15.1,26.73,15.1a99.46,99.46,0,0,0,12.73-1,7.81,7.81,0,0,0,4.16-1.39c1.44-1.23,1.77-3.28,2.64-5,2.42-4.61,8.44-5.7,13.63-6.14,15.49-1.31,34-3.53,40.85-17.48,3.06-6.21,3.06-13.81,7.17-19.39,3.85-5.22,10.67-7.73,14.16-13.19,12.68-19.81-20.11-41.81-27.63-56.56-5-9.86-6.21-22.47,0-31.68,3.64-5.44,9.55-9.35,12-15.41,1.57-3.81,1.62-8.12,3.27-11.88,5.56-12.65,25.59-13.27,31.27-25.86,1.28-2.84,1.7-6.09,3.55-8.59,5.37-7.27,18.75-3.7,24-11.07,4.11-5.78.33-14.6,4.25-20.51,2.85-4.29,8.89-5.6,11.65-9.95,6.46-10.13-10.22-20.53-10.89-32.52-.61-10.84,12-18.46,13-29.26,1-10.65-9.77-20.66-6.43-30.82,3-9.2,15.76-12.11,19.24-21.14,1.27-3.3,1.16-7.11,3-10.1,3.17-5.08,10.35-5.52,15.33-8.86,7-4.68,8.57-14.91,5.34-22.69-6.36-15.28-23.23-32.4-40.09-33.56-8.5-.59-17.83-.33-24.47-5.68-9.32-7.51-8.45-21.59-8.05-33.55.42-12.41-1.51-26.58-11.67-33.71-8.17-5.74-19-5-29-5.43-18.56-.75-39.85-9.11-44.06-27.21-3.12-13.37,4.34-27.85,0-40.87-4.58-13.66-20.43-20-35.05-20-1.05,0-2.09,0-3.12.1-15.41,1-30.18,6.94-45.59,7.91-1,.06-2.09.1-3.15.1-14.61,0-30.44-6.3-35-19.94-1.25-3.69-1.62-7.78-3.86-11-5.05-7.22-17.66-7.24-20.63-15.54-.92-2.57-.68-5.59-2.22-7.85-2.8-4.14-9.26-3.1-13.54-5.69-7.65-4.63-3.45-17.31,4.26-21.83s17.34-4.85,25.06-9.38c9.18-5.38,14.11-15.67,18.51-25.36,4.82-10.61,9.73-21.64,9.66-33.29a17.73,17.73,0,0,0-1.26-7.15c-1.14-2.57-3.19-4.61-5.2-6.59l-33.39-32.9c-2.28-2.24-4.7-4.8-4.83-8-.17-4.49,4.11-7.64,7-11.09,14.77-17.75.45-50.17-12.83-63.88-4.78-4.94-7.91-13.93-2.35-18,1.74-1.26,3.94-1.65,6-2.41,12.11-4.53,13.57-24.59,2.24-30.82-3.82-2.11-8.45-2.74-11.81-5.52-5.89-4.85-5.55-13.89-9-20.68-2.92-5.67-8.66-10-9.73-16.29-2.28-13.39,17.22-21,19.32-34.46.83-5.27-1.18-11,1.13-15.83,5.37-11.18,24.72-3.83,33.45-12.63a16.06,16.06,0,0,0,4-8.42c2.33-12.54-5.86-25.76-17.64-30.65a32.1,32.1,0,0,0-12.3-2.38,38.5,38.5,0,0,0-23.66,8.37c-7.88,6.27-14.27,15.8-24.24,17.21a24.58,24.58,0,0,1-3.48.25c-25,0-35.36-39.93-23.25-57.42,4.7-6.79,11.74-11.79,15.94-18.91a29.43,29.43,0,0,0-.23-29.62c-5.68-9.31-16-14.54-25-20.59s-18-14.72-18.17-25.62c-.19-14.34,14.12-23.74,24.87-33.24a90.76,90.76,0,0,0,19.37-24.25c1.26-2.28,2.44-4.78,2.24-7.38-.34-4.2-4-7.17-6.94-10.23-9-9.5-4.16-22-8.38-32.9-5.76-15-14.85-8.49-27.21-13.44-9.61-3.86-11.08-17.78-19.93-23.15-5.48-3.32-12.43-2.54-18.65-4.09a25.55,25.55,0,0,1-18.55-20.1c-1.08-6.49-1.31-15.52-7.81-16.5a5.3,5.3,0,0,0-.88-.07Z"/></g></svg>