<svg xmlns="http://www.w3.org/2000/svg" viewBox="0 0 10000 10000"><defs><style>.cls-1{opacity:0.7;}.cls-2{opacity:0.4;}.cls-3{fill:#c652e7;}.cls-4{fill:#80151f;}.cls-5{fill:#1f42a4;}.cls-6{fill:#61aa84;}.cls-7{fill:#d15036;}.cls-8{fill:#29c5a2;}.cls-9{fill:#cc7676;}.cls-10{fill:#adf4a6;}.cls-11{fill:#7b482c;}.cls-12{fill:#6fa948;}.cls-13{fill:#d15454;}</style></defs><g id="_2238_CE_Borders" data-name="2238 CE Borders" class="cls-1"><g id="Layer_74" data-name="Layer 74" class="cls-2"><path class="cls-3" d="M4913.11,2658.23l-5.13,12.18a6.07,6.07,0,0,1-1.26,2.12,5.16,5.16,0,0,1-3.15,1.11,18.73,18.73,0,0,1-4.43-.15c-5.51-.83-10.69-3.94-15.08-7.53-5.56-4.53-10.43-10-16.56-13.68s-14.15-5.47-20.43-2c-3.73,2-6.45,5.7-10.38,7.32-6.94,2.87-14.56-1.5-22-2.4a23,23,0,0,0-20.39,7.92c-4,4.77-6.52,11.56-12.85,13.83-2.77,1-6.28,1.07-7.84,3.57-.75,1.21-.87,2.81-1.87,3.83-1.2,1.23-3.18,1.16-4.87.86a32.71,32.71,0,0,1-24.09-19.26c-2.69-6.43-3.21-13.52-4.6-20.35s-4-13.88-9.48-18.11c-1.55-1.19-3.28-2.11-4.86-3.25-6.25-4.51-9.6-11.91-14.26-18-6.88-9-14.52-9.39-24.92-9.38a17.72,17.72,0,0,0-5.77.5q-2.49.81-4.88,1.84a4.9,4.9,0,0,1-2.38.37,4.78,4.78,0,0,0-3.58,1.11,27.37,27.37,0,0,1-5.34,2.86c-2.65,1.16-5.08,2.67-7.9,3.56a18.46,18.46,0,0,1-7.64.71,25.05,25.05,0,0,1-3.13-1.14A7.91,7.91,0,0,1,4641,2605c-.32-.26-.63-.59-.95-.89-1.75-5.24-3.39-10.54-6.17-15.26-1.51-3.63-5.29-2.1-8.32-2.36q-.48-.19-1-.42a16.25,16.25,0,0,0-6.26-4.41c-5.13-2.09-12-3.12-13.48-8.46-1.8-6.47,1.75-12.57-5.48-17.07-1.47-.91-3.18-1.53-4.3-2.84a8.62,8.62,0,0,1-1.63-5c-.87-12,5-23.41,11.23-33.69s13.27-20.6,15.17-32.48c.47-2.9.63-5.91,1.79-8.61,2.83-6.6,11.46-9.52,18.21-7.08s11.36,9.2,12.51,16.29a19.76,19.76,0,0,0,1,4.65,10.52,10.52,0,0,0,4.64,4.78c5.4,3.11,12,3.38,18.19,2.83,9.09-.81,18.56-3.52,24.67-10.29,5.44-6,7.47-14.45,12.3-21a58.78,58.78,0,0,1,8.26-8.51c20.26-18.23,48.71-32.93,72.92-11.24a10.07,10.07,0,0,1,3.29,4.5,11.26,11.26,0,0,1,.09,4.37L4796,2468c-.44,4-.93,8.09-2.95,11.54-2.82,4.79-8.3,7.73-10.53,12.82-1.09,2.5-1.34,5.39-2.95,7.59-3.44,4.72-11,3.81-15.57,7.42-5.39,4.24-4.57,12.5-3.24,19.23.4,2,.84,4.06,2.16,5.59a11.13,11.13,0,0,0,3.26,2.32,130.5,130.5,0,0,0,22.11,9.42c6.34,2,12.93,3.61,18.62,7.06,5.37,3.26,6.65,7.08,9.61,11.92,3.09,5,7.93,9.44,12.45,13.16a76.23,76.23,0,0,0,30.53,15.27c3,.72,6.11,1.28,8.71,2.92,5.78,3.64,7.4,11.37,12.11,16.32,4.45,4.68,11.4,6.58,15.31,11.73,4.48,5.9,4.5,15.41,11.12,18.73,1.89.94,4.1,1.22,5.79,2.46C4916.83,2646.62,4915.18,2653.31,4913.11,2658.23Z"/><path class="cls-4" d="M4548.45,2585.28c1.18-2.11,2.51-4.15,2.2-6.48-.75-5.63-9.74-6.32-11.7-11.65a22.66,22.66,0,0,1-.65-4.67c-.69-4.81-4.48-8.68-8.75-11s-9.09-3.39-13.7-4.92a14.35,14.35,0,0,1-4.3-2.06,13.73,13.73,0,0,1-2.74-3.14,54.06,54.06,0,0,1-7.36-15.49c-1-3.43-1.69-7-3.67-10-6.06-9.08-18.15-10.43-21.79-22-.73-2.33-1.1-4.76-1.82-7.09-1.62-5.28-5-9.83-8.25-14.27a10.5,10.5,0,0,0-3.12-3.14,9.3,9.3,0,0,0-3.57-.89c-4.76-.5-9.62-.36-14.28-1.45-4.87-1.15-9.42-3.61-14.4-4.12-11-1.11-17.21,6.82-25.87,11.62-8.34,4.63-14.9,8.26-18.55,17.88-1.55,4.08-1.71,8.92.64,12.59,1.54,2.4,4,4.06,6.06,6a28.29,28.29,0,0,1,8.86,17.81c.48,4.85-.31,9.81.64,14.6s4.42,9.66,9.3,9.87c2.87.12,5.58-1.4,8.44-1.54,6-.31,10.66,5.32,13,10.87,2.56,6.1,3.9,13.13,9.81,17,5.45,3.56,13.43,1.1,18.17,5.48,1,1,1.77,2.22,2.79,3.19,1.62,1.54,3.83,2.26,5.88,3.14,11.28,4.83,19.8,15.69,31.86,17.92,9.58,1.76,19.26-2.36,29-2.24,3.6,0,7.28.66,10.77-.27,4.73-1.27,6.88-5.38,6.21-10-.39-2.73-1.23-5.52-.56-8.19A14.07,14.07,0,0,1,4548.45,2585.28Z"/><path class="cls-5" d="M4648.72,3382.54a24.8,24.8,0,0,1-8.57-5.86c-5.65-6.26-6.17-15.68-4.62-24s4.86-16.23,5.82-24.61c1.24-10.79-.8-23.55,7.23-30.85,6.62-6,17.75-5.54,23.44-12.44,2-2.45,3.07-5.54,4.57-8.33,8.52-15.85,24.59-12.16,38.64-18.14,6.71-2.86,12.76-9.21,12.14-16.47-.46-5.47-4.45-9.89-8.22-13.87l-18.49-19.44c-3.18-3.35-6.46-6.86-7.88-11.25-3.83-11.83,6.92-23,10-35.08,4.17-16.41-2.82-33,.27-49.46s17.91-23.31,25.49-37.62c3.26-6.16,5.65-13.47,11.71-16.9,9.43-5.34,21.73,1.9,32-1.67,11.77-4.1,15.44-20.33,26.94-25.14,7.9-3.29,16.86-.14,24.81,3,4,1.59,8.26,3.35,10.69,6.91,5.51,8.07-1.48,19.63,2.23,28.68,2.6,6.35,9.78,9.56,16.55,10.7s13.84.85,20.33,3.09c4.7,1.61,8.86,4.48,13.43,6.41,5.74,2.42,12,3.32,17.91,5.27,30.09,9.89,42,51.56,74.39,58.18,11.57,2.37,25.68-4.34,27.13-16.06a15.73,15.73,0,0,1,.84-4.65,9.82,9.82,0,0,1,2.95-3.31,65.73,65.73,0,0,1,27.74-13.07,31.76,31.76,0,0,1,10-.72c11.37,1.31,19.6,11.56,24.47,21.92s7.84,21.85,15.09,30.72c8.89,10.86,23.68,17.12,28.78,30.2,1.77,4.53,2.15,9.47,3,14.25,1.6,8.6,5,17.06,10.92,23.49,10.66,11.54,28.35,16.35,43.35,18.63,6.23.94,14.6-.48,19.3,3.62,6.63,5.78,7.52,20.37,6.2,28.23a77.67,77.67,0,0,1-4.38,14.38l-15,39.72c-2.13,5.63-4.28,11.49-3.77,17.47a20.69,20.69,0,0,0,13.29,17.31c11.79,4.25,26.84-2.48,36.5,5.52,2.14,1.77,3.77,4.13,6.06,5.71a38.38,38.38,0,0,0,6.15,2.89,28,28,0,0,1,15.42,18.21c1.92,7.34.74,15.08.61,22.67s1.12,15.87,6.63,21.08c3.83,3.62,9.15,5.21,13.28,8.46,6.11,4.8,8.94,12.55,11.48,19.9l12.53,36.27c3.31,9.56,10.23,21.29,4.07,31.08-3.34,5.31-8.42,9.32-11.88,14.56-5.38,8.17-7,19.4-15.24,24.61-5,3.13-11.45,3.36-16.09,6.94-5.34,4.12-6.84,11.82-5.31,18.39s5.53,12.26,9.58,17.64c4.24,5.63,8.89,12,7.81,19-1.13,7.29-8.05,12.05-14.39,15.82q-14,8.33-28.38,16c-6.06,3.25-12.39,6.48-19.24,6.92-11.05.72-21.35-5.87-32.39-6.62-12.76-.87-24.87,6.1-37.65,6.51-9.19.28-18.1-2.83-26.76-5.9-19.32-6.86-39.61-14.37-52.73-30.12-3.6-4.33-6.82-9.4-12-11.7-6-2.68-13-.87-19.53-1.2-6.13-.31-12-2.52-18.09-3.35-22.48-3.07-43.92,12.13-63.08,21.77a7.82,7.82,0,0,0-3.05,2.22c-1.17,1.67-.88,3.9-1.13,5.92-.79,6.28-6.85,10.32-12.32,13.51l-23.42,13.64c-5.61,3.27-11.38,6.6-17.78,7.73-7.58,1.33-15.87-.45-22.72,3.07-7.24,3.73-10.51,12.14-15.82,18.31-8.62,10-22.28,13.8-35.11,17.07-5.09,1.29-10.92,2.47-15.23-.53-2.48-1.73-3.93-4.51-5.69-7-8.51-11.79-24.27-15.7-35.15-25.35-7.65-6.8-12.53-16.13-16.74-25.46-4.8-10.66-8.39-24.66-.06-32.86l-27.61-53c-3.23-6.19-6.52-12.61-6.93-19.57-.69-11.8,6.77-21.53,12.73-31,7-11.15,7.8-20.86,12.09-32.77,3.58-9.91,13.42-16.06,19.17-24.88,7.25-11.13,7.35-25.29,7.21-38.57-.05-4.87-.2-10.07-3-14.08-4.59-6.62-14.06-7.14-21-11.2s-11.13-11.48-17-17c-17.16-16.21-44.4-13.24-66.55-21.39C4650.73,3383.39,4649.72,3383,4648.72,3382.54Z"/><path class="cls-6" d="M5589.62,2595.57a20.46,20.46,0,0,1-4.63,11.83c-3.82,4.77-9.17,8-14.48,11.09-4,2.28-8.39,4.56-13,4-3.34-.42-6.29-2.32-9.2-4a94.79,94.79,0,0,0-35.87-12.07c-13.46-1.68-26.66,1.31-40.08,1.82-8.4.32-15.16-2.83-23-5.27-20.68-6.45-41.48-8.16-62.53-2.53-21.35,5.7-41,16.29-62.48,21.72-7.43,1.89-15.32,3.12-22.72,1.11-7.75-2.1-13.08-1.35-20.81-1.54-.88,0-1.76,0-2.63,0-9.13.54-13.47,9.43-22.21,9.49-4.39,0-8.46-2.13-12.58-3.67a47.23,47.23,0,0,0-23.11-2.5c-3.76.54-7.7,1.69-10.14,4.61-1.29,1.55-2,3.47-3.19,5.12a13,13,0,0,1-13,5.15,50.25,50.25,0,0,0-2.35-5.9l.57-.15c5.57-1.64,7.91-8.1,9.44-13.7q3.07-11.24,6.14-22.45a45.62,45.62,0,0,0,2.12-11.58c0-5.37-1.8-10.55-3.77-15.54a4.09,4.09,0,0,0-1.82-2.46c-.75-.34-1.64-.2-2.38-.54-2-.92-1.28-4-2.39-5.88-.62-1-1.75-1.64-2.62-2.48-2.67-2.59-2.31-6.88-3.29-10.47-1.83-6.72-8.32-10.91-14.31-14.45l-21-12.43c-7.16-4.24-12.4-12.33-20.34-14.86-.4-.13-.82-.24-1.24-.34.45-.94.93-1.87,1.44-2.78,3.63-6.54,8.52-12.58,15.41-15.84,3.24-1.53,7.15-2.72,8.59-6,.6-1.36.67-2.89,1.24-4.26a9.76,9.76,0,0,1,2.69-3.44c8.29-7.3,20.37-7.54,31.18-9.85,6.08-1.29,12.09-3.36,18.31-3.35,6,0,12,2,18,1.7s12.73-4.14,13-10.18c.36-7.17-5.14-12.89-2.55-20.18s10.06-11.13,14.65-17.17c3.24-4.27,5.22-9.81,9.84-12.53s10.4-1.76,15.77-1.88c9.26-.2,18.06-3.87,26.6-7.47,3.7-1.57,7.46-3.16,10.62-5.65,10.42-8.18,17.66-15.68,32.22-14.09,10,1.08,19.2,5.85,27.32,11.73,5.47,4,10.62,8.49,16.78,11.28,8.65,3.91,19.45,4.55,25.47,11.9,3.6,4.41,4.63,10.36,7.46,15.3,5.84,10.2,18.29,14.57,29.93,16.18,10.93,1.52,23.09,1.77,31.14,9.3,3.06,2.87,5.27,6.61,8.58,9.18,6.25,4.84,15.3,4.68,21.59,9.47,7.74,5.9,8.73,17.15,7.63,26.82s-3.6,19.71-.42,28.91c2.64,7.66,8.82,13.48,14.71,19.06q19.74,18.67,38.38,38.46c2.52,2.67,5.09,5.46,6.34,8.92A14.6,14.6,0,0,1,5589.62,2595.57Z"/><path class="cls-7" d="M6720.78,2809.9c-1.62,7.16.29,14.57.53,21.9a48.42,48.42,0,0,1-5,23c-5.55-.1-11.14.92-15.62,4.08a20.53,20.53,0,0,0-7.94,12.26,52.24,52.24,0,0,1-13.16-6.26c-8.06-5.35-15.91-12-25.52-13.17-8-1-19.38,1.85-29.78,2.24-11.36.46-21.51-2-24.69-15.27-.07-.3-.14-.6-.2-.9-1.3-6.29-.74-12.85-1.5-19.25-1.56-13-8.62-25.35-7.08-38.32.41-3.44,1.43-6.92.81-10.33-1.37-7.51-9.7-11.35-17.1-13.22-11.9-3-37.08-13.42-29.1-30.21,3-6.33,10.2-10,17.2-10.09a47.14,47.14,0,0,1,9.88,1.25c5.65,1.12,11.37,2.26,16.58,4.73,3.51,1.66,6.77,3.91,10.51,5,3.93,1.09,8.1.76,12.16,1.08a38.36,38.36,0,0,1,20.73,8.14c4.64,3.68,8.41,8.43,13.4,11.61a30.93,30.93,0,0,0,4.34,2.28,55.64,55.64,0,0,0,8.19,2.69c15,3.89,31.49.15,45.45,7.51,2.44,1.28,4.77,2.82,7.42,3.57,5.42,1.53,11.61-.37,16.62,2.2,7.27,3.72,7.43,14.36,4,21.77S6722.58,2801.94,6720.78,2809.9Z"/><path class="cls-8" d="M6755.6,2974.24c-.39,1.55-1.81,2.6-3.17,3.43-6.49,4-13.79,6.46-20.37,10.27-5.86,3.38-9,9.86-14.8,13.34-3.24,1.95-7,2.73-10.6,3.9a47.74,47.74,0,0,0-17.37,10.19c-3.76,3.46-7.1,7.62-11.76,9.73-8.82,4-19.51-.58-28.67,2.57-5.74,2-10.28,6.8-16.2,8.15-4.23,1-8.64,0-12.87-.93-.86-.19-1.69-.38-2.5-.59-5.35-1.32-9.62-3-13.3-7.67-3.23-4.07-2.27-9.47-7-12.48-2.81-1.79-6.14-2.61-8.91-4.46a21.54,21.54,0,0,1-5.51-5.71c-2.8-3.94-5-8.62-4.6-13.44a11.31,11.31,0,0,1,1.56-4.73,9,9,0,0,1,7.61-4.76c1.72,0,3.39.61,5.11.76,5.82.52,10.72-3.92,16-6.45a25.92,25.92,0,0,1,11.94-2.54c.43,0,.87,0,1.3.07,5.4.39,10.93,2,16,.17,4.71-1.74,7.85-6.21,10.06-10.72s3.83-9.39,6.94-13.33c6.61-8.39,18.8-10.71,29.19-8.25,5.07,1.19,10,3.37,15.18,3.55,6.46.22,12.56-2.63,18.75-4.5,1.07-.32,2.17-.61,3.29-.84,1.63,2.68,3.29,5.36,5.17,7.89,5.47,7.35,17.55,19,28,20.5l1.08,3.17A6.65,6.65,0,0,1,6755.6,2974.24Z"/><path class="cls-9" d="M6804.13,2948.12c-.78,2.71-3.32,4.6-6,5.53s-5.53,1.11-8.31,1.61c-11.78,2.11-20.85,11.54-32.9,12.24a13.74,13.74,0,0,1-2.92-.14c-10.45-1.47-22.53-13.15-28-20.5-1.88-2.53-3.54-5.21-5.17-7.89l-.2-.33c-1.89-3.09-3.8-6.24-4.71-9.74-1.89-7.31.54-16-4.2-21.91-2.72-3.38-7.16-4.82-10.56-7.52a23.82,23.82,0,0,1-6.88-9.73,30.72,30.72,0,0,1-1.58-18.59,20.53,20.53,0,0,1,7.94-12.26c4.48-3.16,10.07-4.18,15.62-4.08,1.44,0,2.89.12,4.31.28,6.87.76,13.58,2.71,20.47,3.29,4.22.35,8.65.23,12.84.79a21.57,21.57,0,0,1,9.11,3.09c6,3.91,8.56,11.24,10.58,18.09a12.85,12.85,0,0,0,2.33,5.07c1.68,1.9,4.31,2.6,6.5,3.9,4.66,2.75,7.15,8.09,8.5,13.33.59,2.3,1,4.64,1.49,7a48.08,48.08,0,0,0,2.39,8.78c1.38,3.41,3.42,6.51,5.06,9.8a44.85,44.85,0,0,1,3.82,11.32,41.38,41.38,0,0,1,.65,4.58A11.07,11.07,0,0,1,6804.13,2948.12Z"/><path class="cls-10" d="M6621.47,2972.89c-.43,0-.87-.06-1.3-.07a25.92,25.92,0,0,0-11.94,2.54c-5.27,2.53-10.17,7-16,6.45-1.72-.15-3.39-.74-5.11-.76a9,9,0,0,0-7.61,4.76c-2.8-1.23-5.88-2.12-8.66-3.36-4.65-2.07-8.7-5.32-13.35-7.42-10.43-4.71-25.66-4.27-36.68-1.73-2.86.66-5.44,1.36-7.63,1.18-2.48-.21-4.46-1.55-5.79-5.37-2.61-7.51-6.09-15.5-13.12-19.22-2.74-1.45-5.82-2.12-8.7-3.26-6.91-2.74-12.41-8.07-17.72-13.28a16.27,16.27,0,0,1-3.52-4.34,13.89,13.89,0,0,1-1-6.8,48.41,48.41,0,0,1,9.22-26.07c4.87-6.66,11.51-12.2,14.65-19.83,1.58-3.85,2.18-8,3.62-11.93,3.06-8.31,11.18-15.41,20-14.43a21.82,21.82,0,0,1,8.89,3.37c6.51,4,11.7,9.81,17.89,14.28s14.21,7.58,21.43,5.09c13-4.49,15-23.1,26.41-30.73,4.08-2.72,8.93-3.73,13.88-4.17.06.3.13.6.2.9,3.18,13.3,13.33,15.73,24.69,15.27a35.19,35.19,0,0,1,2.49,19.89c-1.75,10.92-6.95,21.47-5.7,32.76.94,8.43,5.57,16.09,6.62,24.51C6629.41,2945.16,6621,2958.92,6621.47,2972.89Z"/><path class="cls-11" d="M6864,2900.47c-3.58,5.36-10.86,7.53-13.91,13.2-2.19,4.08-1.76,9.28-4.35,13.13-2.42,3.61-6.87,5.16-11,6.35-3.72,1.06-7.51,2.14-11.36,3a137.87,137.87,0,0,1-19.61,3.33,44.85,44.85,0,0,0-3.82-11.32c-1.64-3.29-3.68-6.39-5.06-9.8a48.08,48.08,0,0,1-2.39-8.78c-.47-2.33-.9-4.67-1.49-7-1.35-5.24-3.84-10.58-8.5-13.33-2.19-1.3-4.82-2-6.5-3.9a12.85,12.85,0,0,1-2.33-5.07c-2-6.85-4.61-14.18-10.58-18.09a21.57,21.57,0,0,0-9.11-3.09c-.66-3-2.09-5.79-3.07-8.72-1.48-4.41-1.87-9.34-.19-13.68s5.7-7.92,10.34-8.24c5-.34,9.49,2.93,13.84,5.5a56.48,56.48,0,0,0,18.84,6.94c4.13.73,8.38,1,12.29,2.5,8.23,3.14,13.77,11.16,21.86,14.65,8.55,3.68,19.38,2.09,26.36,8.25,2.41,2.13,4.06,5,5.66,7.77,2.34,4.07,4.71,8.21,5.84,12.76S6866.56,2896.57,6864,2900.47Z"/><path class="cls-12" d="M7448,3276.67c-5.32-11.7-22.41-9.46-30.8-1.55-2.14,2-4.37,4.59-7.31,4.47-3.78-.16-5.77-4.64-6-8.42s.32-7.93-1.86-11c-2.36-3.36-7.36-4.5-8.89-8.32-1.26-3.18.48-6.68,2.18-9.65l5-8.71a3.58,3.58,0,0,1,1.14-1.38,3.14,3.14,0,0,1,2.3-.19c4.18.82,7.78,3.66,12,4.35a12.14,12.14,0,0,0,13.16-16.59c-.8-2-2.13-3.76-2.25-5.86-.14-2.5,1.31-4.71,1.52-7.18.32-3.64-.86-7.38-2.33-10.66-2.19-4.92-5.2-9.62-5.89-15-.25-2-.18-4-.84-5.92-1.92-5.55-8.82-7.2-14.62-8.12s-12.71-2.94-14.18-8.63c-.8-3.05.12-6.85-2.2-9-5-4.55-11.11,4.87-16.31,1.38-2.94-2-2-6.39-2.48-9.9-.36-2.74-1.73-5.23-3.08-7.64a66.61,66.61,0,0,0-6.83-10.61c-1-1.14-2.07-2.6-1.49-4a4,4,0,0,1,2.19-1.74c3.93-1.77,14.37-4.19,15.75-8.88.4-1.38.53-2.85.86-4.26a64.94,64.94,0,0,0,1-6.81,1.67,1.67,0,0,1,.5-1.21c.66-.48,1.53.18,2.07.8l8.33,9.5c1.66,1.9,3.4,3.86,5.7,4.91s5.32,1,7-.91c1.4-1.55,2.42-4.35,4.44-3.83,1.17.31,1.68,1.65,2,2.81.81,2.87,1.57,5.83,3.3,8.25s4.68,4.24,7.61,3.7c2.49-.46,5.13-2.47,7.23-1.07,1.06.7,1.48,2,2.27,3,1.83,2.33,5.22,2.48,8.15,3a24.76,24.76,0,0,1,18.2,14,6,6,0,0,0,1.8,2.73c.91.62,2.1.63,3.13,1,3.54,1.33,3.87,6.18,3.28,9.92s-1.19,8.28,1.77,10.63c6.58,5.23,20-5.31,23.59-10.49a11.77,11.77,0,0,1,2.42-2.91c2.76-2,6.71-.59,9.53,1.36s5.6,4.48,9,4.55c4.18.09,7.49-3.49,11.5-4.68a10.41,10.41,0,0,1,11.12,16.45c-2.78,3.52-8,5.52-8.67,10a15.66,15.66,0,0,1-.48,3.56c-.85,2.09-3.46,2.77-5,4.4-3.25,3.42-.76,9.07,2.28,12.67s6.84,7.73,5.72,12.31a17,17,0,0,1-2.49,4.78c-2.67,4.3-4.17,9.69-2.5,14.47s7.33,8.25,12,6.32c3.47-1.43,6.26-5.44,9.93-4.64,3.08.67,4.37,4.41,4.33,7.56s-.83,6.45.35,9.37c1.37,3.38,4.92,5.21,7.81,7.43s5.48,6,3.88,9.3c-1.45,3-5.28,3.54-8.48,4.26-8.22,1.83-4.5,7-7.7,12.28-1.79,3-6,3-9.43,2.86a139.12,139.12,0,0,0-22.9.82c-3.23.39-7.24,1.67-7.54,4.91-.33,3.46,3.79,5.36,6.08,8a9.05,9.05,0,0,1-1.23,12.63,19.17,19.17,0,0,0-2.86,2.19c-1.89,2.14-1.36,5.39-.95,8.22a54.81,54.81,0,0,1,.46,11.8,7.34,7.34,0,0,1-.89,3.53c-1.31,2-4.12,2.41-6.51,2.11s-4.8-1.06-7.16-.57c-3.72.79-7.74,4.49-10.63,2-1.68-1.44-1.46-4.13-.62-6.18s2.19-4,2.35-6.17c.4-5.58-6.33-8.63-9.37-13.32-2.33-3.59-2.41-8.17-2.07-12.44.24-3,.05-6.91-2.82-7.74-3.12-.91-6.66,3-9.3,1.13-1.62-1.17-1.29-3.85.12-5.26,2.31-2.28,5.42-1.46,6.17-5s-3-7.36-6.34-7.5a8.38,8.38,0,0,0-5.83,2.29c-.37.35-.81.75-1.31.67-.65-.11-.88-.89-1-1.53A17.48,17.48,0,0,0,7448,3276.67Z"/><path class="cls-13" d="M5210,2586.16a45.62,45.62,0,0,1-2.12,11.58q-3.08,11.22-6.14,22.45c-1.53,5.6-3.87,12.06-9.44,13.7-4.2,1.23-9.25-.73-12.82,1.8-1.74,1.24-2.69,3.29-3.71,5.24a61,61,0,0,0-13.43-1.44c-5.27.22-10.2,2.58-15.58,3-6.46.54-12.87-1.09-19.3-2s-13.37-.88-18.89,2.53-8.66,11.27-5.09,16.68c1.37,2.09,3.57,3.65,4.45,6,2.31,6.11-5.37,11.1-7.62,17.23-.91,2.46-.94,5.26-2.37,7.46-2.4,3.68-7.51,4.14-11.91,4.22-8.4.16-17.24.21-24.63-3.81-5.66-3.08-9.88-8.26-15.21-11.88-.23-.16-.47-.31-.72-.46-4.25-5.52-9.79-10.7-12.08-16.93-10.46-5.1-21.57-1.77-28.67-13.63-2.46-5-2.84-12.12-10-11.87-7.9.06-16-.51-23.66.95-5.28,1.71-9.36-3.31-13.25-5.93-1.4-1.88-1.67-4.69-3.34-6.36a7.61,7.61,0,0,0-1.14-.8,25.42,25.42,0,0,1,3.29-8.62c2.63-4,6.36-8.39,4.66-12.83-1.39-3.63-5.67-5-9.26-6.49a28.63,28.63,0,0,1-12.2-9.09c-6-8.1-6-19-5.68-29.08.1-3.69.24-7.54,2-10.8,2.61-4.87,6.46-8.65,6.5-14.6a21.8,21.8,0,0,1,.37-5.1c.41-1.68,1.5-2.49,2.73-3.72,4.32-4.34,8.07-7.17,4.09-13.83-2-3.36-5.08-6-6.79-9.54-2.05-4.19-1.93-9.07-1.77-13.73a9,9,0,0,1,.7-3.82c1.66-3.24,6.16-3.23,9.58-4.47,6.67-2.4,9.62-11.75,5.53-17.55a17.19,17.19,0,0,1-2.43-3.59c-2.57-6.85,0-10.72-9-12.38-5.26-1-11.69-.11-15.09-5.21-1.49-2.23-1.79-5-2.59-7.57a19.65,19.65,0,0,0-11.86-12.36c-2.52-.91-5.28-1.33-7.44-2.9-5.34-3.89-4.35-12.43-8.52-17.54a14.44,14.44,0,0,0-2.59-2.41c0-.49,0-1,0-1.7,1.27-4.95-2.32-7.69-4.94-11.18a83.68,83.68,0,0,1-3.79-29.21c-.55-4.58,4.7-6.49,7.5-9.16.32-.14.78,0,1.12-.19.17-.09.39-.71.61-.87a18.71,18.71,0,0,1,2.75-1.19c8-3.42.6-15.65,7.13-20.45.95-1.29.9-2.89,2.15-4,3.33-2.2,6.74-5.63,10.63-6.7,2.29.38,4.15-.47,6.33-.93s4.68-.74,6.1-2.73c4.52-1.88,6.36-8.14,11.18-8.88,5.27-1.28,13.38,5.6,15.53-2,5.85-10.9,14.86-7.42,24.36-4.6,7.76,1.3,14.48,5.21,21.64,8,9.06,3.81,19.18,2.91,28.08,6.91a10.88,10.88,0,0,0,4.47,3.64,36.56,36.56,0,0,1,18.84,17.46c1.72,3.77,2.71,7.89,4.29,11.75,1.06,2.59-3.94,10.5-4.21,13.53-.19,2.16.68,4.56,2.62,5.53,1.05.52,2.26.57,3.33,1,2.4,1,3.52,3.68,4.81,5.93,5.83,10.13,18.09,14.31,29.36,17.41,6,1.66,12.28,3.36,16.93,7.51,6.61,5.89,9.19,15.75,12.67,23.63.8,1.81,6.79,7.85,7.16,9.78.84,4.38-1.85,12.34-3.27,16.57-3,9-10,10.34-13,19.37-2.64,7.88-7,16.65-5.19,25.13a35.3,35.3,0,0,0,3.67,8.86,28,28,0,0,0,4.54,6.9c4.36,4.43,11.54,3.45,17.09,5.22,7.94,2.53,13.18,10.62,20.34,14.86l21,12.43c6,3.54,12.48,7.73,14.31,14.45,1,3.59.62,7.88,3.29,10.47.87.84,2,1.44,2.62,2.48,1.11,1.88.4,5,2.39,5.88.74.34,1.63.2,2.38.54a4.09,4.09,0,0,1,1.82,2.46C5208.17,2575.61,5210,2580.79,5210,2586.16Z"/></g><path class="cls-3" d="M4767.47,2441.09c7.87,0,14.89,2.87,21.49,8.78a9.22,9.22,0,0,1,.87.84c0,.35-.07.83-.11,1.18l-1.68,15.18c-.35,3.11-.7,6.32-1.89,8.36a23.48,23.48,0,0,1-3.65,4.11c-2.44,2.39-5.48,5.37-7.32,9.57a31.18,31.18,0,0,0-1.35,3.92,15.78,15.78,0,0,1-.71,2.13,16.8,16.8,0,0,1-4.06,1.44c-3,.82-6.72,1.84-10,4.43-9.94,7.83-7.18,21.81-6.13,27.1a19.2,19.2,0,0,0,4,9.27,18.78,18.78,0,0,0,5.49,4.1,138.9,138.9,0,0,0,23.47,10c1.29.41,2.58.81,3.88,1.2,4.8,1.46,9.32,2.83,13,5.08,2.41,1.46,3.28,2.88,5.18,6.23.51.91,1.09,1.94,1.76,3,3.83,6.23,9.59,11.37,14.19,15.15a84.38,84.38,0,0,0,33.74,16.87l1.29.3a18.58,18.58,0,0,1,5,1.61c1.63,1,3,3.46,4.56,6.28a42,42,0,0,0,6,8.78,41.2,41.2,0,0,0,8.78,6.58c2.55,1.55,4.75,2.89,6,4.48a25.36,25.36,0,0,1,2.77,6c1.92,5.17,4.31,11.61,11.16,15a25.16,25.16,0,0,0,3.42,1.35l.63.21a16.82,16.82,0,0,1-1.49,5.41l-1.91,4.54-2.54,6c-.32,0-.64,0-1-.1-3.33-.5-7.1-2.46-11.22-5.82-1.76-1.44-3.49-3-5.31-4.67a79.35,79.35,0,0,0-12.16-9.66,33.46,33.46,0,0,0-16.94-5,23.39,23.39,0,0,0-11.48,2.86,35.85,35.85,0,0,0-5.89,4.26,17.35,17.35,0,0,1-3.7,2.68,5.3,5.3,0,0,1-2.07.35,32.21,32.21,0,0,1-7.46-1.46,58.08,58.08,0,0,0-8.45-1.84,32,32,0,0,0-3.79-.23,30.85,30.85,0,0,0-23.68,10.94,56.4,56.4,0,0,0-3.84,5.3c-1.94,2.92-3.62,5.44-5.58,6.15-.39.13-1,.28-1.63.44-2.79.7-7.46,1.86-10.32,6.45-.13.21-.25.42-.37.63a24.73,24.73,0,0,1-16.28-14.08c-1.56-3.73-2.28-8.07-3-12.66-.33-2-.67-4.1-1.1-6.2-2.17-10.63-6.24-18.11-12.45-22.86-1.14-.87-2.27-1.58-3.26-2.21-.66-.42-1.28-.81-1.79-1.18-3.11-2.24-5.57-6-8.17-10-1.37-2.1-2.79-4.27-4.4-6.39-9.53-12.54-21.38-12.54-30.9-12.54h-2.13a20.46,20.46,0,0,0-6.5.9q-2.54.83-4.91,1.82a12.6,12.6,0,0,0-8.31,2.75,24.51,24.51,0,0,1-3.7,1.89c-1.14.5-2.18,1-3.18,1.52a29,29,0,0,1-3.91,1.74,11.18,11.18,0,0,1-3.18.48l-.51,0-.12-.06c-.47-.21-1.09-.48-1.82-.73a74.59,74.59,0,0,0-5.82-13.92c-1.32-2.78-4.44-6.79-11.38-6.79-.49,0-.95,0-1.38,0a24.68,24.68,0,0,0-6.88-4.18c-1.31-.53-2.62-1-3.88-1.4a24.93,24.93,0,0,1-5-2.07,18.74,18.74,0,0,1-.25-3.88c0-4.57-.06-12.22-8.66-17.57-.64-.4-1.24-.72-1.77-1l-.35-.19c0-.13,0-.29,0-.47-.71-9.73,4.43-19.66,10.08-29l2-3.21c6.06-9.81,12.32-20,14.27-32.15.12-.76.22-1.52.33-2.29a19.41,19.41,0,0,1,.91-4.45c.77-1.79,3.23-3.08,5.86-3.08a6.69,6.69,0,0,1,2.28.38c3.63,1.3,6.57,5.34,7.33,10l.12.84a21.91,21.91,0,0,0,1.39,5.64,18.34,18.34,0,0,0,8,8.62c4.82,2.78,10.5,4.13,17.38,4.13,1.74,0,3.54-.09,5.51-.26,13.17-1.18,23.23-5.52,29.9-12.91,3.77-4.17,6.12-9,8.2-13.32a36.58,36.58,0,0,1,11.77-15.59c10.14-9.13,25.44-20,40.75-20h0m0-8c-16.55,0-33,10.29-46.1,22a58.78,58.78,0,0,0-8.26,8.51c-4.83,6.55-6.86,15-12.3,21-6.11,6.77-15.58,9.48-24.67,10.29-1.58.14-3.19.23-4.8.23-4.69,0-9.37-.74-13.39-3.06a10.52,10.52,0,0,1-4.64-4.78,19.76,19.76,0,0,1-1-4.65c-1.15-7.09-5.75-13.85-12.51-16.29a14.68,14.68,0,0,0-5-.85c-5.51,0-11.05,2.89-13.21,7.93-1.16,2.7-1.32,5.71-1.79,8.61-1.9,11.88-8.91,22.21-15.17,32.48s-12.1,21.69-11.23,33.69a8.62,8.62,0,0,0,1.63,5c1.12,1.31,2.83,1.93,4.3,2.84,7.23,4.5,3.68,10.6,5.48,17.07,1.48,5.34,8.35,6.37,13.48,8.46a16.25,16.25,0,0,1,6.26,4.41q.48.22,1,.42.4,0,.81,0c1.07,0,2.19-.13,3.25-.13,1.79,0,3.4.38,4.26,2.46,2.78,4.72,4.42,10,6.17,15.26.32.3.63.63.95.89a7.91,7.91,0,0,0,3.08,1.63,25.05,25.05,0,0,0,3.13,1.14,15.26,15.26,0,0,0,2.06.14,19.27,19.27,0,0,0,5.58-.85c2.82-.89,5.25-2.4,7.9-3.56a27.37,27.37,0,0,0,5.34-2.86,4.78,4.78,0,0,1,3.58-1.11h.38a4.31,4.31,0,0,0,2-.37q2.39-1,4.88-1.84a12.51,12.51,0,0,1,4-.51h2.13c10.2,0,17.74.44,24.53,9.38,4.66,6.13,8,13.53,14.26,18,1.58,1.14,3.31,2.06,4.86,3.25,5.53,4.23,8.09,11.29,9.48,18.11s1.91,13.92,4.6,20.35a32.71,32.71,0,0,0,24.09,19.26,10.49,10.49,0,0,0,1.87.18,4,4,0,0,0,3-1c1-1,1.12-2.62,1.87-3.83,1.56-2.5,5.07-2.58,7.84-3.57,6.33-2.27,8.83-9.06,12.85-13.83a23,23,0,0,1,17.56-8.09,24.42,24.42,0,0,1,2.83.17c5.65.68,11.39,3.36,16.87,3.36a13.27,13.27,0,0,0,5.13-1c3.93-1.62,6.65-5.27,10.38-7.32a15.67,15.67,0,0,1,7.63-1.87,25.5,25.5,0,0,1,12.8,3.87c6.13,3.72,11,9.15,16.56,13.68,4.39,3.59,9.57,6.7,15.08,7.53a19.57,19.57,0,0,0,2.86.22c.52,0,1.05,0,1.57-.07a5.16,5.16,0,0,0,3.15-1.11,6.07,6.07,0,0,0,1.26-2.12l5.13-12.18c2.07-4.92,3.72-11.61-.58-14.78-1.69-1.24-3.9-1.52-5.79-2.46-6.62-3.32-6.64-12.83-11.12-18.73-3.91-5.15-10.86-7.05-15.31-11.73-4.71-5-6.33-12.68-12.11-16.32-2.6-1.64-5.72-2.2-8.71-2.92A76.23,76.23,0,0,1,4829,2576c-4.52-3.72-9.36-8.13-12.45-13.16-3-4.84-4.24-8.66-9.61-11.92-5.69-3.45-12.28-5-18.62-7.06a130.5,130.5,0,0,1-22.11-9.42,11.13,11.13,0,0,1-3.26-2.32c-1.32-1.53-1.76-3.61-2.16-5.59-1.33-6.73-2.15-15,3.24-19.23,4.59-3.61,12.13-2.7,15.57-7.42,1.61-2.2,1.86-5.09,2.95-7.59,2.23-5.09,7.71-8,10.53-12.82,2-3.45,2.51-7.56,2.95-11.54l1.68-15.18a11.26,11.26,0,0,0-.09-4.37,10.07,10.07,0,0,0-3.29-4.5c-8.59-7.7-17.72-10.81-26.82-10.81Z"/><path class="cls-4" d="M4428.48,2470.83q.62,0,1.26.06a31.77,31.77,0,0,1,6.74,1.88,62.61,62.61,0,0,0,6.64,2.07,61.62,61.62,0,0,0,10.79,1.29c1.57.09,3.06.18,4.5.32l.49.06.59.79c2.85,3.84,5.8,7.82,7,11.85.26.86.49,1.85.73,2.9.3,1.29.63,2.75,1.1,4.24,2.93,9.31,9.66,13.82,15.06,17.44,3.22,2.16,6,4,7.71,6.58a20.93,20.93,0,0,1,2,5.64q.3,1.1.6,2.16a61.69,61.69,0,0,0,8.45,17.8,21.15,21.15,0,0,0,4.41,4.91,21.42,21.42,0,0,0,6.7,3.34c1.34.45,2.68.85,4,1.24a45.89,45.89,0,0,1,8.45,3.13c2.58,1.39,4.39,3.38,4.64,5.08,0,.24.06.62.09,1a18.08,18.08,0,0,0,1,5.27c1.9,5.2,6.18,7.74,9.31,9.59l1.33.81-.26.45-.35.63a21.22,21.22,0,0,0-2.24,5.29,22.21,22.21,0,0,0,.14,9.7c.09.53.19,1.06.26,1.58a2.54,2.54,0,0,1,0,1.05,1.65,1.65,0,0,1-.34.12,9.64,9.64,0,0,1-2.43.24c-.89,0-1.86-.05-2.89-.11s-2.13-.12-3.28-.13h-.5a76.82,76.82,0,0,0-13.17,1.46,64.36,64.36,0,0,1-10.32,1.22,19.6,19.6,0,0,1-3.64-.31c-5.25-1-10.22-4.58-15.48-8.39-4.51-3.27-9.16-6.65-14.69-9l-1.21-.5a14.25,14.25,0,0,1-2.3-1.07c-.11-.11-.39-.47-.6-.73a21.56,21.56,0,0,0-2.27-2.54c-4.46-4.12-10-4.74-14-5.2-2.1-.24-4.27-.48-5.21-1.1-2.31-1.51-3.47-4.43-5.16-9.06-.51-1.41-1-2.87-1.66-4.34-4.09-9.75-11.71-15.8-19.89-15.8-.3,0-.59,0-.88,0a25.1,25.1,0,0,0-5.59,1.05,16.1,16.1,0,0,1-2,.48,5.7,5.7,0,0,1-1.87-3.42,34.41,34.41,0,0,1-.33-6.77,63.38,63.38,0,0,0-.2-7.07,36.54,36.54,0,0,0-11.39-22.9c-.69-.63-1.36-1.2-2-1.75a15.66,15.66,0,0,1-2.75-2.69c-.74-1.15-.7-3.33.1-5.43,2.5-6.59,6.38-9,15-13.72a79.11,79.11,0,0,0,7.65-5c5-3.54,8.21-5.71,12.27-5.71m0-8c-9.76,0-15.7,7.23-23.8,11.72-8.34,4.63-14.9,8.26-18.55,17.88-1.55,4.08-1.71,8.92.64,12.59,1.54,2.4,4,4.06,6.06,6a28.29,28.29,0,0,1,8.86,17.81c.48,4.85-.31,9.81.64,14.6s4.42,9.66,9.3,9.87h.33c2.75,0,5.36-1.4,8.11-1.54l.48,0c5.78,0,10.24,5.48,12.51,10.89,2.56,6.1,3.9,13.13,9.81,17,5.45,3.56,13.43,1.1,18.17,5.48,1,1,1.77,2.22,2.79,3.19,1.62,1.54,3.83,2.26,5.88,3.14,11.28,4.83,19.8,15.69,31.86,17.92a28.26,28.26,0,0,0,5.1.44c7.77,0,15.61-2.68,23.49-2.68h.41c2.08,0,4.18.24,6.26.24a17.59,17.59,0,0,0,4.51-.51c4.73-1.27,6.88-5.38,6.21-10-.39-2.73-1.23-5.52-.56-8.2a14.18,14.18,0,0,1,1.46-3.33c1.18-2.11,2.51-4.15,2.2-6.48-.75-5.63-9.74-6.32-11.7-11.65a22.66,22.66,0,0,1-.65-4.67c-.69-4.81-4.48-8.68-8.75-11s-9.09-3.39-13.7-4.92a14.35,14.35,0,0,1-4.3-2.06,13.73,13.73,0,0,1-2.74-3.14,53.77,53.77,0,0,1-7.35-15.49c-1-3.43-1.7-7-3.68-10-6.06-9.08-18.15-10.43-21.79-22-.73-2.33-1.1-4.76-1.82-7.09-1.62-5.28-5-9.83-8.25-14.27a10.5,10.5,0,0,0-3.12-3.14,9.3,9.3,0,0,0-3.57-.89c-4.76-.5-9.62-.36-14.28-1.45-4.87-1.15-9.42-3.61-14.4-4.12-.71-.07-1.4-.1-2.07-.1Z"/><path class="cls-5" d="M4806.51,3038c4.42,0,9.59,1.9,14.51,3.84,2.48,1,5.89,2.32,7,4,1.26,1.85.8,5.63.31,9.63-.65,5.37-1.39,11.46,1.11,17.57,3.29,8,11.54,13.69,22.64,15.56,2.74.46,5.41.7,8,.94a48.3,48.3,0,0,1,11,1.82,49.9,49.9,0,0,1,6.55,3.08c2,1.07,4.08,2.17,6.37,3.14a79.7,79.7,0,0,0,11.76,3.63c2.38.6,4.63,1.17,6.76,1.87,12.14,4,21.34,14.66,31.08,26,12.05,14,24.5,28.42,44.21,32.46a32,32,0,0,0,6.38.63c13.27,0,28.4-8.25,30.29-23.54.06-.47.1-.94.15-1.41,0-.24,0-.52.07-.76s.35-.3.64-.54a57.68,57.68,0,0,1,24.35-11.47,28.36,28.36,0,0,1,5.77-.7,15.13,15.13,0,0,1,1.69.09c9.53,1.1,15.86,12.51,18.14,17.37,1.39,3,2.62,6,3.92,9.26,3.15,7.87,6.41,16,12.23,23.12,4,4.87,8.74,8.72,13.33,12.44,6.09,4.94,11.84,9.6,14.18,15.61a42.68,42.68,0,0,1,2,8.74c.21,1.32.42,2.68.68,4.06,2,11,6.51,20.54,12.9,27.46,10,10.81,25.71,17.71,48,21.11a61.86,61.86,0,0,0,7,.51c2.83.09,7.11.24,8.24,1.23,3.33,2.9,4.74,13.9,3.57,20.88a70,70,0,0,1-4,12.87l-7.2,19.09-7.79,20.64c-2.19,5.82-4.93,13.06-4.25,21a28.67,28.67,0,0,0,18.54,24.15,40.61,40.61,0,0,0,13.85,2c1.83,0,3.64-.07,5.38-.12s3.24-.11,4.76-.11c5.17,0,8.11.68,10.13,2.35a22.82,22.82,0,0,1,1.87,1.85,24.39,24.39,0,0,0,10.61,7.24c.56.23,1.09.44,1.56.65a20,20,0,0,1,10.95,12.93c1.12,4.29.86,9.24.59,14.48-.1,2-.2,4-.24,6-.21,12,2.86,21.1,9.14,27a39.63,39.63,0,0,0,9,6,34,34,0,0,1,4.87,2.94c4.13,3.24,6.37,9,8.86,16.22l7.53,21.8,5,14.47c.67,1.92,1.45,3.89,2.2,5.78,3.34,8.38,5.33,14.19,2.66,18.43a48.08,48.08,0,0,1-5.23,6.39,63.72,63.72,0,0,0-6.55,8,67.83,67.83,0,0,0-5.43,10.66c-2.23,5.12-4.16,9.54-7.41,11.58a25.94,25.94,0,0,1-5.66,2.24c-3.48,1.09-7.42,2.34-11.05,5.13-7.41,5.72-10.63,16.13-8.21,26.54,1.88,8.09,6.46,14.63,11,20.65,3.77,5,6.84,9.42,6.3,12.95-.59,3.77-5.68,7.25-10.58,10.16-9.19,5.46-18.64,10.79-28.07,15.85-5.75,3.08-10.92,5.66-16,6-.39,0-.78,0-1.18,0-4.29,0-8.92-1.45-13.83-3-5.13-1.61-10.45-3.28-16.32-3.67-.91-.06-1.84-.1-2.77-.1-7.22,0-13.86,1.82-20.29,3.57-5.39,1.47-10.48,2.87-15.38,3h-.95c-7.51,0-15.33-2.77-22.89-5.45-17.42-6.18-37.17-13.19-49.25-27.7-.62-.75-1.25-1.54-1.91-2.38-3.27-4.14-7-8.84-12.95-11.51a28.47,28.47,0,0,0-11.7-2.19c-1.75,0-3.44.09-5.07.18s-2.91.16-4.24.16c-.5,0-.95,0-1.37,0a52.59,52.59,0,0,1-9.05-1.61c-2.67-.63-5.43-1.28-8.37-1.68a53.36,53.36,0,0,0-7.07-.47c-18.18,0-35.07,9.21-50,17.33-3.73,2-7.25,4-10.7,5.7a13.51,13.51,0,0,0-8.45,13.2c0,.42-.05.83-.08,1.08-.36,2.91-6,6.19-8.41,7.59l-23.42,13.65c-4.95,2.88-10.07,5.87-15.14,6.76a52,52,0,0,1-7.39.51c-5.46.12-11.65.26-17.6,3.33-6.67,3.43-10.55,9.22-14,14.33a60.16,60.16,0,0,1-4.26,5.88c-6.74,7.85-18,11.22-31,14.52a28.46,28.46,0,0,1-6.51,1.11,4,4,0,0,1-2.18-.45,14.27,14.27,0,0,1-2.4-3.06c-.43-.65-.88-1.31-1.38-2-6-8.32-14.39-13.05-22.5-17.62-5.11-2.88-9.94-5.6-13.81-9-6.6-5.86-11-14.4-14.76-22.76-2.4-5.34-7.38-18.34-1.75-23.88l4.22-4.16-2.73-5.24L4735.9,3617l-13.81-26.48c-2.81-5.39-5.71-11-6-16.34-.46-7.73,4.23-15,9.2-22.65.78-1.21,1.56-2.41,2.31-3.6,5.31-8.44,7.47-16.15,9.56-23.62,1-3.45,2-7,3.29-10.71,1.56-4.33,5.26-8.2,9.17-12.29a76.29,76.29,0,0,0,9.17-10.93c8.82-13.54,8.64-30.58,8.51-43-.05-4.94-.13-12.39-4.4-18.56-4.41-6.35-11.26-8.77-16.76-10.72a42,42,0,0,1-6.81-2.83c-3.19-1.86-5.95-5.14-8.88-8.62a83.89,83.89,0,0,0-6.64-7.29c-12.66-12-29.19-14.78-45.17-17.51-8.6-1.47-16.72-2.85-24.11-5.57-.93-.34-1.76-.68-2.53-1a17.19,17.19,0,0,1-5.88-3.9c-4.41-4.91-3.36-13.63-2.7-17.15.6-3.2,1.51-6.42,2.48-9.82a96.93,96.93,0,0,0,3.43-15.35c.34-3,.45-5.93.56-8.8.29-7.4.53-13.79,4.1-17,1.86-1.69,5-2.78,8.39-3.93,5.32-1.83,11.36-3.91,15.84-9.34a32.66,32.66,0,0,0,4.3-7.29c.4-.85.77-1.65,1.15-2.35,3.79-7,9.17-8.37,19.15-10.31a75.39,75.39,0,0,0,15.57-4.25c9.15-3.9,18-13,17-24.51-.71-8.51-6.54-14.64-10.39-18.7l-18.49-19.44c-2.55-2.68-5.18-5.46-6.07-8.21-1.48-4.58,1.25-10.15,4.43-16.6a72.92,72.92,0,0,0,5.7-14c2.54-10,1.57-19.54.62-28.77-.76-7.47-1.49-14.52-.24-21.19,1.4-7.47,6.27-12.68,11.9-18.71,4.32-4.63,9.22-9.87,12.8-16.64.74-1.39,1.41-2.79,2.06-4.14,2-4.14,3.88-8,6.53-9.54a9.65,9.65,0,0,1,4.88-1,57.25,57.25,0,0,1,7.05.63,71.76,71.76,0,0,0,9.24.78,28.47,28.47,0,0,0,9.47-1.48c8.36-2.92,13.29-9.59,17.64-15.47,3.18-4.29,6.18-8.35,9.76-9.84a10.85,10.85,0,0,1,4.28-.79m0-8a19,19,0,0,0-7.37,1.4c-11.5,4.81-15.17,21-26.94,25.14a20.5,20.5,0,0,1-6.84,1c-5.38,0-11-1.41-16.29-1.41a17.4,17.4,0,0,0-8.83,2c-6.06,3.43-8.45,10.74-11.71,16.9-7.57,14.31-22.41,21.17-25.49,37.62s3.9,33.05-.27,49.46c-3.07,12.05-13.82,23.25-10,35.08,1.42,4.39,4.7,7.9,7.88,11.25l18.49,19.44c3.77,4,7.76,8.4,8.22,13.87.62,7.26-5.43,13.61-12.14,16.47-14,6-30.12,2.29-38.64,18.14-1.5,2.79-2.55,5.88-4.57,8.33-5.69,6.9-16.82,6.42-23.44,12.44-8,7.3-6,20.06-7.23,30.85-1,8.38-4.27,16.32-5.82,24.61s-1,17.71,4.62,24a24.8,24.8,0,0,0,8.57,5.86c1,.44,2,.85,3,1.22,22.15,8.15,49.39,5.18,66.55,21.39,5.85,5.52,10,13,17,17s16.43,4.58,21,11.2c2.78,4,2.93,9.21,3,14.08.14,13.28,0,27.44-7.21,38.57-5.75,8.82-15.59,15-19.17,24.88-4.29,11.91-5.07,21.62-12.09,32.77-6,9.46-13.42,19.18-12.73,31,.41,7,3.7,13.38,6.93,19.57l27.61,53c-8.33,8.2-4.74,22.2.06,32.86,4.21,9.33,9.09,18.66,16.74,25.46,10.88,9.65,26.64,13.56,35.15,25.35,1.76,2.45,3.21,5.23,5.69,7a11.52,11.52,0,0,0,6.75,1.88,35.54,35.54,0,0,0,8.48-1.35c12.83-3.27,26.49-7,35.11-17.07,5.31-6.17,8.58-14.58,15.82-18.31,6.85-3.52,15.14-1.74,22.72-3.07,6.4-1.13,12.17-4.46,17.78-7.73l23.42-13.64c5.47-3.19,11.53-7.23,12.32-13.51.25-2,0-4.25,1.13-5.92a7.82,7.82,0,0,1,3.05-2.22c17.46-8.78,36.79-22.17,57.09-22.17a43.26,43.26,0,0,1,6,.4c6.08.83,12,3,18.09,3.35.59,0,1.19,0,1.78,0,3.09,0,6.24-.34,9.31-.34a20.38,20.38,0,0,1,8.44,1.5c5.15,2.3,8.37,7.37,12,11.7,13.12,15.75,33.41,23.26,52.73,30.12,8.28,2.94,16.8,5.91,25.56,5.91h1.2c12-.38,23.47-6.59,35.42-6.59.74,0,1.48,0,2.23.08,10.48.71,20.28,6.68,30.69,6.68.56,0,1.13,0,1.7-.06,6.85-.44,13.18-3.67,19.24-6.92q14.37-7.7,28.38-16c6.35-3.77,13.26-8.53,14.39-15.82,1.08-7-3.57-13.36-7.81-19-4-5.38-8-11.07-9.58-17.64s0-14.27,5.31-18.39c4.64-3.58,11.12-3.81,16.09-6.94,8.27-5.21,9.86-16.44,15.24-24.61,3.46-5.24,8.54-9.25,11.88-14.56,6.16-9.79-.76-21.52-4.07-31.08q-6.26-18.14-12.53-36.27c-2.54-7.35-5.37-15.1-11.48-19.9-4.13-3.25-9.45-4.84-13.28-8.46-5.51-5.21-6.76-13.49-6.63-21.08s1.31-15.33-.61-22.67a28,28,0,0,0-15.42-18.21A38.38,38.38,0,0,1,5232,3387c-2.29-1.58-3.92-3.94-6.06-5.71-4.27-3.54-9.6-4.19-15.23-4.19-3.32,0-6.76.23-10.14.23a32.68,32.68,0,0,1-11.13-1.56,20.69,20.69,0,0,1-13.29-17.31c-.51-6,1.64-11.84,3.77-17.47q7.48-19.86,15-39.72a77.67,77.67,0,0,0,4.38-14.38c1.32-7.86.43-22.45-6.2-28.23-4.7-4.1-13.07-2.68-19.3-3.62-15-2.28-32.69-7.09-43.35-18.63-5.94-6.43-9.32-14.89-10.92-23.49-.89-4.78-1.27-9.72-3-14.25-5.1-13.08-19.89-19.34-28.78-30.2-7.25-8.87-10.23-20.35-15.09-30.72s-13.1-20.61-24.47-21.92a22.82,22.82,0,0,0-2.61-.14,36.82,36.82,0,0,0-7.39.86,65.73,65.73,0,0,0-27.74,13.07,9.82,9.82,0,0,0-2.95,3.31,15.73,15.73,0,0,0-.84,4.65c-1.25,10.15-12,16.53-22.35,16.53a23.77,23.77,0,0,1-4.78-.47c-32.35-6.62-44.3-48.29-74.39-58.18-5.91-1.95-12.17-2.85-17.91-5.27-4.57-1.93-8.73-4.8-13.43-6.41-6.49-2.24-13.56-1.95-20.33-3.09s-13.95-4.35-16.55-10.7c-3.71-9.05,3.28-20.61-2.23-28.68-2.43-3.56-6.68-5.32-10.69-6.91-5.56-2.19-11.61-4.39-17.44-4.39Z"/><path class="cls-6" d="M5350.1,2381.53h0a27.63,27.63,0,0,1,2.94.17c7.37.8,15.06,4.16,23.49,10.26,1.26.92,2.51,1.87,3.84,2.87,4.36,3.32,8.86,6.74,14.33,9.21a78.39,78.39,0,0,0,9.84,3.49c5.48,1.67,10.21,3.11,12.73,6.2,1.34,1.63,2.27,4,3.35,6.77a54.65,54.65,0,0,0,3.37,7.43c6.17,10.78,18.54,17.74,35.77,20.14,1.76.24,3.55.45,5.28.66,8.53,1,16.6,2,21.49,6.55a37.61,37.61,0,0,1,3,3.31,39.14,39.14,0,0,0,6.2,6.36c4.3,3.33,9.13,4.8,13.4,6.09,3.21,1,6.25,1.91,8.23,3.42,5.41,4.12,5.16,14,4.53,19.54-.2,1.76-.45,3.55-.72,5.44-1.17,8.32-2.5,17.74.68,27,3.27,9.49,10.4,16.24,16.7,22.19l.08.08c13,12.29,25.8,25.12,38.06,38.13,1.83,1.95,3.91,4.15,4.63,6.16a6.29,6.29,0,0,1,.34,2.34,12.55,12.55,0,0,1-2.88,7.08c-2.95,3.69-7.45,6.43-12.2,9.14-2.56,1.46-5.46,3-7.54,3a3.44,3.44,0,0,1-.46,0c-1.38-.18-3.28-1.29-5.29-2.48l-.87-.51a103.53,103.53,0,0,0-38.91-13.09,77.73,77.73,0,0,0-9.65-.56,180.73,180.73,0,0,0-18.31,1.23c-4.63.48-9,.93-13.42,1.1l-.88,0c-4.79,0-9.23-1.52-14.36-3.27-1.62-.55-3.29-1.12-5-1.67a129.4,129.4,0,0,0-38.9-6.29,108.69,108.69,0,0,0-28.08,3.67c-10.83,2.89-21.21,7-31.25,10.92-10.6,4.18-20.61,8.11-31.13,10.78a51.39,51.39,0,0,1-12.56,1.89,22.91,22.91,0,0,1-6.1-.75,55.13,55.13,0,0,0-15.41-1.8h-4.3c-1.13,0-2.08,0-3,0h-1.2c-.74,0-1.42,0-2.08.05-6.77.4-11.47,3.66-15.25,6.28-2.94,2-4.7,3.19-6.58,3.2s-4.25-1-6.8-2c-.93-.38-1.89-.77-2.89-1.14a54.84,54.84,0,0,0-19.3-3.48,55.66,55.66,0,0,0-7.75.55,29.66,29.66,0,0,0-9.12,2.69l1.82-6.66q1.83-6.66,3.65-13.32c1.1-4,2.36-8.64,2.4-13.63.05-6.86-2.21-13.16-4.34-18.56a11.81,11.81,0,0,0-5.8-6.72,12.58,12.58,0,0,0-1.35-3.29,13.8,13.8,0,0,0-3.57-3.86l-.15-.11a22.34,22.34,0,0,1-.5-2.66,37.62,37.62,0,0,0-.84-4.33c-2.8-10.28-12.29-15.89-17.95-19.23l-13.09-7.75-7.9-4.68a45.91,45.91,0,0,1-6.86-5.55,69.25,69.25,0,0,0-7.49-6.22,23.87,23.87,0,0,1,9-7.94c.47-.22,1-.44,1.46-.65,3.42-1.51,8.58-3.77,11-9.34a19.65,19.65,0,0,0,1.13-3.66c.05-.21.11-.48.16-.67a6.88,6.88,0,0,1,.61-.6c4.67-4.11,11.94-5.31,19.64-6.59,2.59-.43,5.27-.87,7.91-1.43,1.79-.38,3.53-.82,5.22-1.23,4-1,7.85-2,11.42-2a49.33,49.33,0,0,1,7.16.77,61.82,61.82,0,0,0,9.62,1c.56,0,1.13,0,1.68,0,9.59-.49,20.07-6.89,20.61-17.77a31.15,31.15,0,0,0-2-11.44c-1.11-3.43-1.51-5-1-6.46.91-2.57,3.47-4.93,6.45-7.67a44.82,44.82,0,0,0,10.33-12.36c1.45-2.38,2.81-4.62,4.23-5.46,1-.59,2.6-.84,5.34-.84.83,0,1.66,0,2.49,0s1.9,0,2.84,0h1.21c10.93-.24,20.82-4.42,29.54-8.1,3.95-1.67,8.43-3.56,12.45-6.72l3.47-2.77c8-6.46,12.56-9.84,20-9.84m0-8c-12.11,0-19,6.88-28.42,14.31-3.16,2.49-6.92,4.08-10.62,5.65-8.54,3.6-17.34,7.27-26.6,7.47h-1c-1.76,0-3.56-.08-5.33-.08-3.33,0-6.58.29-9.4,2-4.62,2.72-6.6,8.26-9.84,12.53-4.59,6-12.11,10-14.65,17.17s2.91,13,2.55,20.18c-.3,6-7,9.87-13,10.18-.42,0-.85,0-1.27,0-5.6,0-11.14-1.72-16.77-1.73h0c-6.21,0-12.2,2.06-18.27,3.35-10.81,2.31-22.89,2.55-31.18,9.85a9.76,9.76,0,0,0-2.69,3.44c-.57,1.37-.64,2.9-1.24,4.26-1.44,3.27-5.35,4.46-8.59,6-6.89,3.26-11.78,9.3-15.41,15.84-.51.91-1,1.84-1.44,2.78.42.1.84.21,1.24.34,7.94,2.53,13.18,10.62,20.34,14.86l21,12.43c6,3.54,12.48,7.73,14.31,14.45,1,3.59.62,7.88,3.29,10.47.87.84,2,1.44,2.62,2.48,1.11,1.88.4,5,2.39,5.88.74.34,1.63.2,2.38.54a4.09,4.09,0,0,1,1.82,2.46c2,5,3.81,10.17,3.77,15.54a45.62,45.62,0,0,1-2.12,11.58q-3.08,11.22-6.14,22.45c-1.53,5.6-3.87,12.06-9.44,13.7l-.57.15a50.25,50.25,0,0,1,2.35,5.9,11.82,11.82,0,0,0,2.44.25,13,13,0,0,0,10.54-5.4c1.15-1.65,1.9-3.57,3.19-5.12,2.44-2.92,6.38-4.07,10.14-4.61a47.15,47.15,0,0,1,23.11,2.5c4.09,1.53,8.13,3.67,12.49,3.67h.09c8.74-.06,13.08-8.95,22.21-9.49.53,0,1.07,0,1.61,0h1c1.11,0,2.17,0,3.19,0l4.3,0a47.32,47.32,0,0,1,13.32,1.52,31.12,31.12,0,0,0,8.19,1,59.35,59.35,0,0,0,14.53-2.14c21.43-5.43,41.13-16,62.48-21.72a100.09,100.09,0,0,1,26-3.4,122.41,122.41,0,0,1,36.52,5.93c7.44,2.32,13.92,5.3,21.78,5.3l1.19,0c10.53-.4,20.92-2.32,31.42-2.32a70.08,70.08,0,0,1,8.66.5,94.79,94.79,0,0,1,35.87,12.07c2.91,1.69,5.86,3.59,9.2,4a11.64,11.64,0,0,0,1.45.09c4.05,0,7.94-2,11.51-4.08,5.31-3,10.66-6.32,14.48-11.09a20.46,20.46,0,0,0,4.63-11.83,14.6,14.6,0,0,0-.81-5.31c-1.25-3.46-3.82-6.25-6.34-8.92q-18.63-19.78-38.38-38.46c-5.89-5.58-12.07-11.4-14.71-19.06-3.18-9.2-.69-19.24.42-28.91s.11-20.92-7.63-26.82c-6.29-4.79-15.34-4.63-21.59-9.47-3.31-2.57-5.52-6.31-8.58-9.18-8.05-7.53-20.21-7.78-31.14-9.3-11.64-1.61-24.09-6-29.93-16.18-2.83-4.94-3.86-10.89-7.46-15.3-6-7.35-16.82-8-25.47-11.9-6.16-2.79-11.31-7.32-16.78-11.28-8.12-5.88-17.35-10.65-27.32-11.73a33.82,33.82,0,0,0-3.8-.22Z"/><path class="cls-7" d="M6563,2724.37a42.12,42.12,0,0,1,8,1.1c5.34,1.05,10.38,2.05,14.72,4.11,1,.46,2,1,3.05,1.59a41.92,41.92,0,0,0,8.74,3.85,41.17,41.17,0,0,0,10.23,1.19c1.22,0,2.37.07,3.45.16a30.37,30.37,0,0,1,16.38,6.43c1.6,1.27,3.17,2.78,4.84,4.38a59.37,59.37,0,0,0,9.23,7.71,39,39,0,0,0,5.46,2.87,63.33,63.33,0,0,0,9.36,3.09c6.9,1.79,13.76,2.14,20.39,2.47,8.55.43,16.62.84,23.35,4.38.55.29,1.09.6,1.64.9a33.33,33.33,0,0,0,7.33,3.29,34.4,34.4,0,0,0,9.45,1c2.34,0,4.55,0,5.7.62,2.24,1.15,2.44,6.85.38,11.3a68.23,68.23,0,0,1-4.14,7.29c-2.85,4.59-6.08,9.79-7.49,16s-.76,12.14-.2,17.42c.24,2.29.47,4.44.53,6.51a40.17,40.17,0,0,1-2.4,15,31.1,31.1,0,0,0-14.87,5.31,27.06,27.06,0,0,0-7.71,8.4,47.06,47.06,0,0,1-4.36-2.52c-1.36-.91-2.71-1.85-4.14-2.85-7-4.88-15-10.41-24.84-11.6a38.76,38.76,0,0,0-4.61-.26,114.81,114.81,0,0,0-14.22,1.24c-4.09.52-8.33,1.06-12.23,1.21-.74,0-1.45,0-2.12,0-10.27,0-13.08-3.37-14.47-9.17,0-.21-.09-.41-.15-.67a59.25,59.25,0,0,1-.84-9.87c-.1-2.81-.19-5.71-.55-8.72a100.62,100.62,0,0,0-3.79-16.36c-2.07-7.1-4-13.8-3.29-20,.09-.75.23-1.57.37-2.43a29.16,29.16,0,0,0,.37-10.29c-1.2-6.56-6.16-15.28-23-19.54-9.63-2.43-21.34-8.13-24.06-13.91-.54-1.15-.94-2.65.23-5.1,1.52-3.2,5.66-5.47,10.09-5.53h.24m0-8h-.36c-7,.09-14.19,3.76-17.2,10.09-8,16.79,17.2,27.21,29.1,30.21,7.4,1.87,15.73,5.71,17.1,13.22.62,3.41-.4,6.89-.81,10.33-1.54,13,5.52,25.35,7.08,38.32.76,6.4.2,13,1.5,19.25.06.3.13.6.2.9,2.95,12.34,11.9,15.32,22.25,15.32.8,0,1.62,0,2.44-.05,8.9-.33,18.54-2.44,26.13-2.44a30.33,30.33,0,0,1,3.65.2c9.61,1.16,17.46,7.82,25.52,13.17a52.24,52.24,0,0,0,13.16,6.26,20.53,20.53,0,0,1,7.94-12.26c4.28-3,9.58-4.09,14.89-4.09h.73a48.42,48.42,0,0,0,5-23c-.24-7.33-2.15-14.74-.53-21.9,1.8-8,7.68-14.32,11.1-21.74s3.26-18-4-21.77c-5-2.57-11.2-.67-16.62-2.2-2.65-.75-5-2.29-7.42-3.57-14-7.36-30.44-3.62-45.45-7.51a55.64,55.64,0,0,1-8.19-2.69,30.93,30.93,0,0,1-4.34-2.28c-5-3.18-8.76-7.93-13.4-11.61a38.36,38.36,0,0,0-20.73-8.14c-4.06-.32-8.23,0-12.16-1.08-3.74-1-7-3.3-10.51-5-5.21-2.47-10.93-3.61-16.58-4.73a48.61,48.61,0,0,0-9.52-1.25Z"/><path class="cls-8" d="M6675.64,2947.83a26.51,26.51,0,0,1,6.15.72c1.44.34,2.94.79,4.53,1.27a47.39,47.39,0,0,0,12.21,2.49h1c6,0,11.39-1.85,16.17-3.48l1.58-.53c.74,1.11,1.52,2.23,2.33,3.33,4.69,6.29,14.34,16.42,25.11,21.2-2,1.06-4.2,2-6.43,3.07-3.35,1.54-6.81,3.14-10.21,5.1a39.64,39.64,0,0,0-9.47,8.31,27.18,27.18,0,0,1-5.46,5.11,27.81,27.81,0,0,1-6,2.24c-.95.28-1.94.57-3,.91a56,56,0,0,0-20.3,11.9c-1.05,1-2,1.95-3,2.89-2.3,2.29-4.48,4.45-6.65,5.44a15.63,15.63,0,0,1-6.47,1c-1.51,0-3.1-.08-4.78-.17s-3.7-.19-5.63-.19a33.39,33.39,0,0,0-11.1,1.62,43.4,43.4,0,0,0-9,4.66c-2.41,1.51-4.49,2.83-6.39,3.26a9.43,9.43,0,0,1-2,.2,36.48,36.48,0,0,1-7.36-1.14c-.69-.15-1.48-.33-2.22-.52l-.05,0h0c-4.78-1.18-7-2.36-8.95-4.87a11.28,11.28,0,0,1-1.22-3c-1-3.17-2.56-8-7.76-11.27a37.12,37.12,0,0,0-5.46-2.74,21.54,21.54,0,0,1-3.33-1.64,13.9,13.9,0,0,1-3.41-3.67c-2.26-3.18-3.35-6-3.15-8.09a3.38,3.38,0,0,1,.46-1.36,2.57,2.57,0,0,1,.76-.84c.29,0,.85.14,1.28.23a27.08,27.08,0,0,0,3.1.49c.54,0,1.1.07,1.65.07,6,0,10.87-2.88,14.78-5.19,1.33-.79,2.58-1.53,3.74-2.09a17.92,17.92,0,0,1,7.73-1.76h.55c.31,0,.62,0,.91,0,1.19.09,2.47.26,3.83.44a54.11,54.11,0,0,0,7.31.62,23.07,23.07,0,0,0,8.17-1.37c6-2.2,10.71-7,14.48-14.71.68-1.4,1.29-2.77,1.88-4.11a37,37,0,0,1,4.15-7.78c3.07-3.89,8.51-6.13,14.93-6.13m45.2-8.86c-1.12.23-2.22.52-3.29.84-6,1.8-11.84,4.51-18,4.51h-.71c-5.2-.18-10.11-2.36-15.18-3.55a34.89,34.89,0,0,0-8-.93c-8.13,0-16.25,2.88-21.21,9.18-3.11,3.94-4.74,8.82-6.94,13.33s-5.35,9-10.06,10.72a15.32,15.32,0,0,1-5.4.87c-3.46,0-7-.79-10.56-1-.43,0-.87-.06-1.3-.07h-.74a26,26,0,0,0-11.2,2.55c-5,2.39-9.63,6.49-15,6.49-.31,0-.62,0-.94,0-1.72-.15-3.39-.74-5.11-.76H6587a9,9,0,0,0-7.52,4.76,11.31,11.31,0,0,0-1.56,4.73c-.44,4.82,1.8,9.5,4.6,13.44a21.54,21.54,0,0,0,5.51,5.71c2.77,1.85,6.1,2.67,8.91,4.46,4.74,3,3.78,8.41,7,12.48,3.68,4.63,7.95,6.35,13.3,7.67.81.21,1.64.4,2.5.59a42.64,42.64,0,0,0,9.09,1.33,17.22,17.22,0,0,0,3.78-.4c5.92-1.35,10.46-6.18,16.2-8.15a25.87,25.87,0,0,1,8.5-1.19c3.45,0,7,.36,10.41.36a23.32,23.32,0,0,0,9.76-1.74c4.66-2.11,8-6.27,11.76-9.73a47.74,47.74,0,0,1,17.37-10.19c3.58-1.17,7.36-1.95,10.6-3.9,5.77-3.48,8.94-10,14.8-13.34,6.58-3.81,13.88-6.27,20.37-10.27,1.36-.83,2.78-1.88,3.17-3.43a6.65,6.65,0,0,0-.51-3.71l-1.08-3.17c-10.45-1.47-22.53-13.15-28-20.5-1.88-2.53-3.54-5.21-5.17-7.89Z"/><path class="cls-9" d="M6715.54,2862.8h.62a34.22,34.22,0,0,1,3.54.23c2.87.32,5.79.88,8.87,1.48a109.45,109.45,0,0,0,11.82,1.83c1.91.16,3.8.23,5.63.3,2.43.09,4.72.17,6.8.45a13.74,13.74,0,0,1,5.8,1.85c3.73,2.45,5.72,8.33,7.29,13.66a19.92,19.92,0,0,0,4,8.11,19.71,19.71,0,0,0,6.82,4.68c.61.29,1.19.57,1.6.81,2.58,1.52,4.05,5.43,4.82,8.43.42,1.63.76,3.33,1.12,5.14l.27,1.39a56.46,56.46,0,0,0,2.82,10.23,62.07,62.07,0,0,0,3.52,7c.65,1.16,1.26,2.27,1.79,3.33a36.51,36.51,0,0,1,3.14,9.33,31.59,31.59,0,0,1,.53,3.73c0,.38,0,.65.06.85a4.17,4.17,0,0,1-.9.44,25.65,25.65,0,0,1-4.31.85c-.9.13-1.82.26-2.78.44-6.61,1.18-12.31,4.14-17.34,6.75-5.26,2.74-9.8,5.09-14.65,5.38h-.29a6.19,6.19,0,0,1-.93-.07h-.09c-6.74-1-17-9.75-22.69-17.35-1.68-2.27-3.21-4.74-4.76-7.28l0-.06,0-.06,0,0a3.21,3.21,0,0,0-.19-.31c-1.55-2.54-3.15-5.16-3.76-7.53a33.73,33.73,0,0,1-.66-6.88c-.19-5.48-.43-12.3-5.06-18.05a29,29,0,0,0-8.5-6.66,29,29,0,0,1-3.33-2.12,15.92,15.92,0,0,1-4.45-6.52,22.8,22.8,0,0,1-1.19-13.65,12.83,12.83,0,0,1,4.77-7.59c2.47-1.74,5.93-2.63,10.28-2.63m0-8c-5.31,0-10.61,1.07-14.89,4.09a20.53,20.53,0,0,0-7.94,12.26,30.72,30.72,0,0,0,1.58,18.59,23.82,23.82,0,0,0,6.88,9.73c3.4,2.7,7.84,4.14,10.56,7.52,4.74,5.88,2.31,14.6,4.2,21.91.91,3.5,2.82,6.65,4.71,9.74l.2.33c1.63,2.68,3.29,5.36,5.17,7.89,5.47,7.35,17.55,19,28,20.5a14.08,14.08,0,0,0,2.13.16c.26,0,.53,0,.79,0,12-.7,21.12-10.13,32.9-12.24,2.78-.5,5.64-.68,8.31-1.61s5.21-2.82,6-5.53a11.07,11.07,0,0,0,.19-4,41.38,41.38,0,0,0-.65-4.58,44.85,44.85,0,0,0-3.82-11.32c-1.64-3.29-3.68-6.39-5.06-9.8a48.08,48.08,0,0,1-2.39-8.78c-.47-2.33-.9-4.67-1.49-7-1.35-5.24-3.84-10.58-8.5-13.33-2.19-1.3-4.82-2-6.5-3.9a12.85,12.85,0,0,1-2.33-5.07c-2-6.85-4.61-14.18-10.58-18.09a21.57,21.57,0,0,0-9.11-3.09c-4.19-.56-8.62-.44-12.84-.79-6.89-.58-13.6-2.53-20.47-3.29-1.42-.16-2.87-.26-4.31-.28Z"/><path class="cls-10" d="M6593.91,2846.82c4.27,9.26,12.51,14.32,24.58,15.09a27.12,27.12,0,0,1,.35,10.67,100.14,100.14,0,0,1-2.48,10.47c-2,7.3-4.25,15.56-3.27,24.45a64,64,0,0,0,3.73,14.19,52.64,52.64,0,0,1,2.9,10.42c.74,6-1,12.44-2.78,19.3a112.08,112.08,0,0,0-3,13.86,33.6,33.6,0,0,0-9.13,2.88c-1.79.86-3.41,1.81-5,2.74-2.46,1.46-5,3-6.62,3h-.24c-.31,0-.82-.13-1.35-.24a23.32,23.32,0,0,0-4.36-.55H6587a16,16,0,0,0-9.71,3.35c-1.15-.42-2.24-.82-3.22-1.26a52.07,52.07,0,0,1-5.81-3.25,67,67,0,0,0-7.5-4.15c-7.89-3.57-17-4.32-23.18-4.32a84.21,84.21,0,0,0-18.59,2.08l-1,.25c-1,.24-2.17.51-3.05.65-3.1-8.89-7.53-18.62-16.91-23.58a40.42,40.42,0,0,0-6.66-2.64c-1-.34-2-.65-2.83-1-5.52-2.19-10.37-7-15.08-11.56a14.61,14.61,0,0,1-1.91-2.1,7.18,7.18,0,0,1-.17-2.94,40.47,40.47,0,0,1,7.69-21.73c1.45-2,3.15-3.94,5-6,3.78-4.34,8.07-9.25,10.64-15.51a55.74,55.74,0,0,0,2.32-7.43c.45-1.72.88-3.34,1.41-4.78,1.91-5.2,6.67-9.28,10.83-9.28a6.45,6.45,0,0,1,.76,0,14.06,14.06,0,0,1,5.58,2.24,71,71,0,0,1,9.24,7.26c2.56,2.24,5.21,4.56,8.16,6.69,4.74,3.41,12.18,7.48,20.7,7.48a24.44,24.44,0,0,0,8-1.32c10-3.44,14.84-12,19.14-19.57,2.82-5,5.49-9.66,9.1-12.06a14.26,14.26,0,0,1,4-1.8m5.45-9c-4.95.44-9.8,1.45-13.88,4.17-11.46,7.63-13.41,26.24-26.41,30.73a16.48,16.48,0,0,1-5.41.88c-5.63,0-11.35-2.6-16-6-6.19-4.47-11.38-10.28-17.89-14.28a21.82,21.82,0,0,0-8.89-3.37,15,15,0,0,0-1.64-.09c-8.15,0-15.47,6.73-18.34,14.52-1.44,3.9-2,8.08-3.62,11.93-3.14,7.63-9.78,13.17-14.65,19.83a48.41,48.41,0,0,0-9.22,26.07,13.89,13.89,0,0,0,1,6.8,16.27,16.27,0,0,0,3.52,4.34c5.31,5.21,10.81,10.54,17.72,13.28,2.88,1.14,6,1.81,8.7,3.26,7,3.72,10.51,11.71,13.12,19.22,1.33,3.82,3.31,5.16,5.79,5.37.24,0,.48,0,.73,0a33.36,33.36,0,0,0,6.9-1.21,76.76,76.76,0,0,1,16.79-1.88c7.09,0,14.2,1,19.89,3.61,4.65,2.1,8.7,5.35,13.35,7.42,2.78,1.24,5.86,2.13,8.66,3.36a9,9,0,0,1,7.52-4.76h.09c1.72,0,3.39.61,5.11.76.32,0,.63,0,.94,0,5.41,0,10.07-4.1,15-6.49a26,26,0,0,1,11.2-2.55h.74c.43,0,.87,0,1.3.07-.46-14,7.94-27.73,6.19-41.77-1.05-8.42-5.68-16.08-6.62-24.51-1.25-11.29,3.95-21.84,5.7-32.76a35.19,35.19,0,0,0-2.49-19.89c-.82,0-1.64.05-2.44.05-10.35,0-19.3-3-22.25-15.32-.07-.3-.14-.6-.2-.9Z"/><path class="cls-12" d="M7383,3111.72a24.35,24.35,0,0,0,8,6.45,15.45,15.45,0,0,0,6.41,1.4,13.93,13.93,0,0,0,5.27-1,22.14,22.14,0,0,0,1.92,3.29,16.32,16.32,0,0,0,13.07,7.16,14.15,14.15,0,0,0,2.52-.23,16.3,16.3,0,0,0,2.09-.54c3.52,4.14,8.39,4.85,11.65,5.32l1.14.17a16.71,16.71,0,0,1,12.21,9.42l.1.22a13,13,0,0,0,4.49,5.85,11.47,11.47,0,0,0,3.15,1.49,11.22,11.22,0,0,1-.13,1.58c-.66,4.16-2,12.8,4.7,18.15a14.82,14.82,0,0,0,9.34,3.15c10.61,0,22-10,25.77-15.31l0-.07a8.71,8.71,0,0,1,.8.49l1.28.92c2.86,2.09,6.78,4.94,12.14,5.06h.33c4.58,0,8.14-2.05,10.75-3.55a16.86,16.86,0,0,1,2.86-1.46,2.13,2.13,0,0,1,.53-.07,2.79,2.79,0,0,1,2.16,1,2.76,2.76,0,0,1-.11,2.85,18.28,18.28,0,0,1-2.43,2.19c-2.76,2.24-6.94,5.63-7.87,11.47-.07.4-.11.77-.14,1.11a17.7,17.7,0,0,0-3.25,2.6c-5.64,5.92-4.85,15.3,2,23.36l.5.59c1.1,1.3,3.1,3.65,3.48,4.78-.19.36-.56.93-.84,1.37s-.41.64-.61,1c-4.36,7-5.54,14.8-3.24,21.34,2.48,7.08,9.54,12.21,16.77,12.21a15.26,15.26,0,0,0,5.83-1.14,19.47,19.47,0,0,0,3-1.6,20.56,20.56,0,0,0,1.13,9.49c2,4.84,5.85,7.57,8.69,9.57l.7.5-.52.11c-10.69,2.39-11.77,10.18-12.23,13.51-.09.59-.16,1.07-.23,1.45-.27,0-.61,0-1,0s-.9,0-1.5,0c-2.28-.11-4.59-.16-6.87-.16a145.69,145.69,0,0,0-17.35,1c-8.51,1-14,5.54-14.57,12.11s4,10.5,6.51,12.61a19.19,19.19,0,0,1,1.5,1.34,1.53,1.53,0,0,1-.11,1.09l-.52.35a16.76,16.76,0,0,0-3.42,2.85c-4.31,4.89-3.42,10.92-2.88,14.52l0,.16a46.63,46.63,0,0,1,.48,8.1l-.07,0a27.8,27.8,0,0,0-4.94-.54,16.37,16.37,0,0,0-2.83.24,15.28,15.28,0,0,0,.25-1.85c.53-7.38-4.42-12.05-7.7-15.13a22.29,22.29,0,0,1-2.94-3.11c-1.11-1.72-1-5.08-.8-7.45.74-9.28-3.08-13.32-6.18-15.06.08-.26.14-.54.2-.82a13.69,13.69,0,0,0-2.81-11.19,15.07,15.07,0,0,0-11.05-5.95H7457a15.08,15.08,0,0,0-3.07.31c-4.06-6.55-11.14-10.24-19.83-10.24a33.83,33.83,0,0,0-22.25,8.66c0-.22,0-.46,0-.69-.05-3.6-.12-8.53-3.23-13a22.32,22.32,0,0,0-6.25-5.63c-.44-.29-1-.68-1.45-1a19.65,19.65,0,0,1,1.38-2.75l2.8-4.9.22-.37.9.41a31.34,31.34,0,0,0,8.26,2.84,19.25,19.25,0,0,0,3.13.25,20.12,20.12,0,0,0,18.72-27.78c-.36-.88-.75-1.64-1.09-2.31-.16-.33-.37-.73-.5-1,.08-.3.21-.72.32-1.05a21.55,21.55,0,0,0,1.11-4.9c.39-4.45-.59-9.23-3-14.62-.63-1.42-1.31-2.78-1.95-4.09-1.53-3.09-3-6-3.31-8.63-.06-.41-.1-.92-.14-1.45a23.12,23.12,0,0,0-1.08-6.07c-3.7-10.66-15.77-12.58-20.92-13.4-6.63-1.06-7.7-2.73-7.7-2.74a15.11,15.11,0,0,1-.17-1.8c-.17-2.8-.46-7.49-4.37-11.07a12.5,12.5,0,0,0-8.54-3.37,17.63,17.63,0,0,0-7.53,1.94c0-.7-.09-1.45-.19-2.22-.56-4.3-2.48-7.74-4-10.51-1.28-2.28-2.65-4.74-4.25-7.18,5.41-2,11.57-4.85,14-10.38m-4.28-16.19a.87.87,0,0,0-.5.16,1.67,1.67,0,0,0-.5,1.21,64.94,64.94,0,0,1-1,6.81c-.33,1.41-.46,2.88-.86,4.26-1.38,4.69-11.82,7.11-15.75,8.88a4,4,0,0,0-2.19,1.74c-.58,1.38.53,2.84,1.49,4a66.61,66.61,0,0,1,6.83,10.61c1.35,2.41,2.72,4.9,3.08,7.64.45,3.51-.46,7.93,2.48,9.9a4.55,4.55,0,0,0,2.6.8c3.47,0,7.17-3.45,10.57-3.45a4.5,4.5,0,0,1,3.14,1.27c2.32,2.13,1.4,5.93,2.2,9,1.47,5.69,8.38,7.7,14.18,8.63s12.7,2.57,14.62,8.12c.66,1.89.59,3.94.84,5.92.69,5.34,3.7,10,5.89,15,1.47,3.28,2.65,7,2.33,10.66-.21,2.47-1.66,4.68-1.52,7.18.12,2.1,1.45,3.91,2.25,5.86a12.12,12.12,0,0,1-11.32,16.73,12.56,12.56,0,0,1-1.84-.14c-4.21-.69-7.81-3.53-12-4.35a5.28,5.28,0,0,0-1.05-.12,2.33,2.33,0,0,0-1.25.31,3.58,3.58,0,0,0-1.14,1.38l-5,8.71c-1.7,3-3.44,6.47-2.18,9.65,1.53,3.82,6.53,5,8.89,8.32,2.18,3.1,1.63,7.25,1.86,11s2.22,8.26,6,8.42h.2c2.85,0,5-2.49,7.11-4.47a25.65,25.65,0,0,1,16.87-6.58c5.86,0,11.32,2.38,13.93,8.13a17.48,17.48,0,0,1,1.07,3.23c.15.64.38,1.42,1,1.53h.13a1.92,1.92,0,0,0,1.18-.68,8.43,8.43,0,0,1,5.56-2.29h.27c3.35.14,7.09,4,6.34,7.5s-3.86,2.74-6.17,5c-1.41,1.41-1.74,4.09-.12,5.26a2.84,2.84,0,0,0,1.67.52c2.05,0,4.41-1.79,6.63-1.79a3.81,3.81,0,0,1,1,.13c2.87.84,3.06,4.77,2.82,7.75-.34,4.27-.26,8.85,2.07,12.44,3,4.69,9.77,7.74,9.37,13.32-.16,2.21-1.5,4.13-2.35,6.17s-1.06,4.74.62,6.18a3.38,3.38,0,0,0,2.3.84c2.53,0,5.52-2.25,8.33-2.85a8.41,8.41,0,0,1,1.66-.16,45.31,45.31,0,0,1,5.5.73,10.89,10.89,0,0,0,1.41.09c2,0,4-.56,5.1-2.2a7.34,7.34,0,0,0,.89-3.53,54.81,54.81,0,0,0-.46-11.8c-.41-2.83-.94-6.08.95-8.22a19.17,19.17,0,0,1,2.86-2.19,9.05,9.05,0,0,0,1.23-12.63c-2.29-2.61-6.41-4.51-6.08-8,.3-3.24,4.31-4.52,7.54-4.91a138.57,138.57,0,0,1,16.41-1q3.26,0,6.49.15c.61,0,1.24.05,1.88.05,3,0,6.07-.47,7.55-2.91,3.2-5.3-.52-10.45,7.7-12.28,3.2-.72,7-1.31,8.48-4.26,1.6-3.28-1-7.08-3.88-9.3s-6.44-4.05-7.81-7.43c-1.18-2.92-.4-6.22-.35-9.37s-1.25-6.89-4.33-7.56a4.64,4.64,0,0,0-1-.11c-3.21,0-5.81,3.45-9,4.75a7.28,7.28,0,0,1-2.78.54,10.4,10.4,0,0,1-9.23-6.86c-1.67-4.78-.17-10.17,2.5-14.47a17,17,0,0,0,2.49-4.78c1.12-4.58-2.67-8.71-5.72-12.31s-5.53-9.25-2.28-12.67c1.56-1.63,4.17-2.31,5-4.4a15.66,15.66,0,0,0,.48-3.56c.71-4.44,5.89-6.44,8.67-10a10.38,10.38,0,0,0-8.32-16.85,9.82,9.82,0,0,0-2.8.4c-4,1.18-7.24,4.68-11.34,4.68h-.16c-3.43-.07-6.22-2.6-9-4.55a12,12,0,0,0-6.36-2.35,5.23,5.23,0,0,0-3.17,1,11.77,11.77,0,0,0-2.42,2.91c-3,4.19-12.29,11.91-19.22,11.91a6.84,6.84,0,0,1-4.37-1.41c-3-2.36-2.36-6.91-1.77-10.64s.26-8.59-3.28-9.92c-1-.38-2.22-.39-3.13-1a6,6,0,0,1-1.8-2.73,24.76,24.76,0,0,0-18.2-14c-2.93-.48-6.32-.63-8.15-3-.79-1-1.21-2.34-2.27-3a3,3,0,0,0-1.67-.49c-1.75,0-3.7,1.22-5.56,1.56a5.44,5.44,0,0,1-1.06.1,8.5,8.5,0,0,1-6.55-3.8c-1.73-2.42-2.49-5.38-3.3-8.25-.33-1.16-.84-2.5-2-2.81a2.12,2.12,0,0,0-.49-.06c-1.7,0-2.66,2.47-4,3.89a5.25,5.25,0,0,1-4,1.58,7.5,7.5,0,0,1-3.07-.67c-2.3-1.05-4-3-5.71-4.91l-8.32-9.5a2.44,2.44,0,0,0-1.57-1Z"/><path class="cls-11" d="M6761.7,2836.51c1.8,0,4.51,1.65,7.12,3.25l1.94,1.17a64.13,64.13,0,0,0,21.5,7.92c1.23.22,2.44.39,3.6.56a35.93,35.93,0,0,1,7.23,1.53c3,1.16,6,3.59,9.08,6.17,3.52,2.92,7.5,6.22,12.47,8.36a54.14,54.14,0,0,0,12.89,3.27c4.77.79,8.89,1.47,11.33,3.62a23.91,23.91,0,0,1,4,5.77c2.14,3.7,4.15,7.2,5,10.71.72,2.87.49,5.55-.6,7.19-.89,1.33-2.77,2.69-4.75,4.12-3.15,2.28-7.08,5.12-9.56,9.74a29.89,29.89,0,0,0-2.69,8.27,14.79,14.79,0,0,1-1.26,4.19c-1,1.52-4.92,2.63-6.6,3.11-3.6,1-7.32,2.08-11,2.94-3.17.73-7.4,1.66-11.89,2.36a52.94,52.94,0,0,0-2.57-6.13c-.7-1.4-1.43-2.72-2.14-4a47,47,0,0,1-2.66-5.23,42.1,42.1,0,0,1-2-7.36l-.27-1.36c-.38-1.95-.78-4-1.31-6-2.23-8.63-6.33-14.76-12.17-18.21-1-.62-2-1.09-2.92-1.51-.56-.26-1.3-.61-1.65-.83a19.64,19.64,0,0,1-.67-2c-1.71-5.82-4.91-16.65-13.87-22.52a26.33,26.33,0,0,0-7.29-3.28l-.62-1.57c-.4-1-.77-1.93-1.07-2.82a12.42,12.42,0,0,1-.31-8.24c.64-1.65,2.18-3.06,3.42-3.15h.19m0-8c-.24,0-.49,0-.73,0-4.64.32-8.66,3.9-10.34,8.24s-1.29,9.27.19,13.68c1,2.93,2.41,5.72,3.07,8.72a21.57,21.57,0,0,1,9.11,3.09c6,3.91,8.56,11.24,10.58,18.09a12.85,12.85,0,0,0,2.33,5.07c1.68,1.9,4.31,2.6,6.5,3.9,4.66,2.75,7.15,8.09,8.5,13.33.59,2.3,1,4.64,1.49,7a48.08,48.08,0,0,0,2.39,8.78c1.38,3.41,3.42,6.51,5.06,9.8a44.85,44.85,0,0,1,3.82,11.32,137.87,137.87,0,0,0,19.61-3.33c3.85-.9,7.64-2,11.36-3,4.18-1.19,8.63-2.74,11-6.35,2.59-3.85,2.16-9.05,4.35-13.13,3.05-5.67,10.33-7.84,13.91-13.2,2.61-3.9,2.85-9,1.71-13.57s-3.5-8.69-5.84-12.76c-1.6-2.79-3.25-5.64-5.66-7.77-7-6.16-17.81-4.57-26.36-8.25-8.09-3.49-13.63-11.51-21.86-14.65-3.91-1.49-8.16-1.77-12.29-2.5a56.48,56.48,0,0,1-18.84-6.94c-4.14-2.45-8.37-5.52-13.11-5.52Z"/><path class="cls-13" d="M4971.19,2298h0c2.37,0,5.64,1,9.1,2l1.64.49.47.14.49.08c4.44.74,8.78,2.68,13.38,4.72,2.11.95,4.3,1.92,6.58,2.82,5.29,2.21,10.51,3,15.55,3.82a58.59,58.59,0,0,1,10.67,2.33,18.82,18.82,0,0,0,6,4.27l.16.07.16.07a28.44,28.44,0,0,1,14.58,13.45,58.82,58.82,0,0,1,2.05,5.6c.44,1.31.88,2.65,1.39,4-.38,1-1,2.54-1.48,3.55-1.28,2.92-2.39,5.44-2.62,8a13.55,13.55,0,0,0,7,13.4,14.67,14.67,0,0,0,3.27,1.13c.26.41.57,1,.81,1.42s.44.81.68,1.22c7.05,12.25,20.59,17.4,34.16,21.13l.19.06c5.32,1.46,10.34,2.85,13.55,5.71,3.66,3.26,6,9.17,8.22,14.88.78,2,1.58,4,2.45,6,.77,1.73,2.05,3.3,4.24,5.93.7.84,1.76,2.1,2.41,3-.12,2.52-1.64,7.56-3,11.58l0,.1c-.93,2.81-2.42,4.34-4.66,6.67-2.78,2.89-6.23,6.48-8.32,12.7-.45,1.35-1,2.76-1.52,4.25-2.74,7.46-5.84,15.92-3.9,25.09a42,42,0,0,0,4.4,10.89,35,35,0,0,0,5.92,8.81c4.79,4.87,11.07,5.73,15.65,6.36,1.47.21,2.86.4,4,.68h.07c.27.07.48.12.66.18,3,1,6,3.71,9.19,6.62a58.4,58.4,0,0,0,9.5,7.5l7.9,4.68q6.54,3.87,13.1,7.76c4.84,2.86,9.65,6,10.66,9.67a24.73,24.73,0,0,1,.46,2.49c.5,3.35,1.18,7.93,5,11.62.38.37.76.69,1.09,1,.35,2.09,1.35,6.7,6.14,8.92l.73.3c1.4,3.66,2.61,7.44,2.58,10.91a39,39,0,0,1-1.84,9.53l-3.63,13.27-2.51,9.18c-1.81,6.64-3.31,7.9-3.93,8.12l-.2.05a10.56,10.56,0,0,1-1.57.09l-1.35,0-1.68,0a17.35,17.35,0,0,0-10.45,2.87,15,15,0,0,0-3.08,3,56,56,0,0,0-8.17-.66c-.53,0-1.05,0-1.58,0a44.9,44.9,0,0,0-9.82,1.78,38,38,0,0,1-6.1,1.27c-.63,0-1.3.08-2,.08a65.21,65.21,0,0,1-10.38-1.19c-1.68-.28-3.42-.57-5.2-.82a57.94,57.94,0,0,0-7.66-.56,31,31,0,0,0-16.52,4.22,22.51,22.51,0,0,0-9.92,14,17.87,17.87,0,0,0,2.36,13.82,26.41,26.41,0,0,0,2.62,3.28c.25.27.54.6.77.87a31.67,31.67,0,0,1-2.38,3.51,33.33,33.33,0,0,0-5,8.39,29.64,29.64,0,0,0-1.1,4c-.13.59-.3,1.37-.44,1.77-.46.24-1.77.64-5.39.7-1.3,0-2.81,0-4.29,0-5.74,0-11.7-.35-16.37-2.89a42.52,42.52,0,0,1-7.27-5.6,74.48,74.48,0,0,0-7-5.69c-1-1.28-2.08-2.51-3.1-3.72-3-3.5-5.78-6.81-6.95-10l-1.11-3-2.89-1.41a51.21,51.21,0,0,0-12.9-3.91c-6.51-1.32-9.58-2.1-12.24-6.34-.32-.72-.65-1.64-1-2.59-1.58-4.38-4.86-13.48-15.71-13.48h-1.63l-4.27,0-4.47,0a81.57,81.57,0,0,0-15.15,1.15l-.49.09-.18.06a21.37,21.37,0,0,1-3.39-2.42l-1.5-1.19c-.06-.14-.11-.28-.16-.41a23.32,23.32,0,0,0-1.6-3.46,10.45,10.45,0,0,1,1-2.09l.95-1.4c3-4.34,7.51-10.9,4.52-18.72-2.49-6.51-8.57-9-12.6-10.58l-1.07-.44a20.64,20.64,0,0,1-8.83-6.46c-4.26-5.76-4.38-14.32-4.11-24.1.07-2.62.15-5.58,1-7.24.56-1,1.25-2.11,2-3.24,2.42-3.75,5.44-8.43,5.48-15.09v-.64c0-.75,0-1.36,0-1.88l0,0c.22-.22.45-.43.69-.68l.93-.92c3.93-3.88,11.25-11.12,4.36-22.66a45.06,45.06,0,0,0-3.74-5.12,22.21,22.21,0,0,1-2.73-3.83c-1.18-2.41-1.09-6.2-1-9.6l1.16-.28a34.84,34.84,0,0,0,3.85-1.09,20.1,20.1,0,0,0,9.34-29.72c-.37-.52-.73-1-1-1.36-.17-.21-.39-.49-.51-.66a22.39,22.39,0,0,1-.84-3.44c-1.05-5.58-3.09-11.71-14.07-13.74-1.58-.29-3.1-.44-4.56-.58-2.27-.22-4.84-.47-5.33-1.21a13.24,13.24,0,0,1-.85-2.74c-.21-.84-.45-1.79-.76-2.79A27.5,27.5,0,0,0,4918.8,2412c-1-.36-1.91-.63-2.74-.88a13.32,13.32,0,0,1-2.71-1c-.73-.53-1.47-3.17-2-5.1-.94-3.32-2.11-7.47-5-11l-.5-.59c.2-6-3.28-10.18-5.5-12.83l-.49-.58a74.64,74.64,0,0,1-3-24.9c.45-.36,1.07-.8,1.53-1.13s1-.73,1.57-1.14a9.89,9.89,0,0,0,1-.38l.17-.08.17-.09a8.49,8.49,0,0,0,1.94-1.43c.3-.12.63-.25,1-.41,8.92-3.93,8.84-12.86,8.8-17.67a23.55,23.55,0,0,1,.15-3.9l.6-.45.72-1a13.28,13.28,0,0,0,1.7-3.15c.65-.47,1.28-1,1.9-1.43a31,31,0,0,1,3.95-2.74,21,21,0,0,0,5.53-.89c.46-.12.88-.24,1.24-.31l.11,0,.11,0,.88-.2a16.06,16.06,0,0,0,8.32-3.87,24.57,24.57,0,0,0,6.16-5.6,22.06,22.06,0,0,1,1.7-1.87,23.91,23.91,0,0,1,2.74.63,25.57,25.57,0,0,0,6.75,1.15,12.06,12.06,0,0,0,11.76-8.45c1.58-2.67,2.79-2.67,4-2.67m0-8c-4.39,0-8.29,1.77-11.34,7.45-.8,2.83-2.41,3.67-4.39,3.67-2.89,0-6.58-1.79-9.66-1.79a6.52,6.52,0,0,0-1.48.16c-4.82.74-6.66,7-11.18,8.88-1.42,2-3.85,2.19-6.1,2.73a25.05,25.05,0,0,1-5.17,1,6.74,6.74,0,0,1-1.16-.1c-3.89,1.07-7.3,4.5-10.63,6.7-1.25,1.09-1.2,2.69-2.15,4-6.53,4.8.83,17-7.13,20.45a18.71,18.71,0,0,0-2.75,1.19c-.22.16-.44.78-.61.87-.34.16-.8,0-1.12.19-2.8,2.67-8,4.58-7.5,9.16a83.68,83.68,0,0,0,3.79,29.21c2.62,3.49,6.21,6.23,4.94,11.18,0,.66,0,1.21,0,1.7a14.44,14.44,0,0,1,2.59,2.41c4.17,5.11,3.18,13.65,8.52,17.54,2.16,1.57,4.92,2,7.44,2.9a19.65,19.65,0,0,1,11.86,12.36c.8,2.55,1.1,5.34,2.59,7.57,3.4,5.1,9.83,4.24,15.09,5.21,9,1.66,6.39,5.53,9,12.38a17.19,17.19,0,0,0,2.43,3.59c4.09,5.8,1.14,15.15-5.53,17.55-3.42,1.24-7.92,1.23-9.58,4.47a9,9,0,0,0-.7,3.82c-.16,4.66-.28,9.54,1.77,13.73,1.71,3.51,4.78,6.18,6.79,9.54,4,6.66.23,9.49-4.09,13.83-1.23,1.23-2.32,2-2.73,3.72a21.8,21.8,0,0,0-.37,5.1c0,5.95-3.89,9.73-6.5,14.6-1.75,3.26-1.89,7.11-2,10.8-.28,10.07-.31,21,5.68,29.08A28.63,28.63,0,0,0,4952,2596c3.59,1.49,7.87,2.86,9.26,6.49,1.7,4.44-2,8.87-4.66,12.83a25.42,25.42,0,0,0-3.29,8.62,7.61,7.61,0,0,1,1.14.8c1.67,1.67,1.94,4.48,3.34,6.36,3.34,2.25,6.83,6.28,11.09,6.28a7,7,0,0,0,2.16-.35,72.82,72.82,0,0,1,13.65-1c2.92,0,5.84.06,8.74.06H4995c6.84,0,7.25,7,9.67,11.88,7.1,11.86,18.21,8.53,28.67,13.63,2.29,6.23,7.83,11.41,12.08,16.93.25.15.49.3.72.46,5.33,3.62,9.55,8.8,15.21,11.88,6.1,3.32,13.18,3.86,20.19,3.86,1.48,0,3,0,4.44,0,4.4-.08,9.51-.54,11.91-4.22,1.43-2.2,1.46-5,2.37-7.46,2.25-6.13,9.93-11.12,7.62-17.23-.88-2.33-3.08-3.89-4.45-6-3.57-5.41-.42-13.26,5.09-16.68a23.1,23.1,0,0,1,12.3-3,49.88,49.88,0,0,1,6.59.49c5.55.76,11.08,2.08,16.65,2.08.88,0,1.76,0,2.65-.11,5.38-.45,10.31-2.81,15.58-3,.41,0,.83,0,1.25,0a66.28,66.28,0,0,1,12.18,1.46c1-1.95,2-4,3.71-5.24a9.66,9.66,0,0,1,5.81-1.39c1,0,2,0,3,0a15.41,15.41,0,0,0,3.41-.3l.57-.15c5.57-1.64,7.91-8.1,9.44-13.7q3.07-11.24,6.14-22.45a45.62,45.62,0,0,0,2.12-11.58c0-5.37-1.8-10.55-3.77-15.54a4.09,4.09,0,0,0-1.82-2.46c-.75-.34-1.64-.2-2.38-.54-2-.92-1.28-4-2.39-5.88-.62-1-1.75-1.64-2.62-2.48-2.67-2.59-2.31-6.88-3.29-10.47-1.83-6.72-8.32-10.91-14.31-14.45l-21-12.43c-7.16-4.24-12.4-12.33-20.34-14.86-.4-.13-.82-.24-1.24-.34-5.34-1.32-11.81-.77-15.85-4.88a28,28,0,0,1-4.54-6.9,35.3,35.3,0,0,1-3.67-8.86c-1.79-8.48,2.55-17.25,5.19-25.13,3-9,10-10.34,13-19.37,1.42-4.23,4.11-12.19,3.27-16.57-.37-1.93-6.36-8-7.16-9.78-3.48-7.88-6.06-17.74-12.67-23.63-4.65-4.15-10.92-5.85-16.93-7.51-11.27-3.1-23.53-7.28-29.36-17.41-1.29-2.25-2.41-4.92-4.81-5.93-1.07-.45-2.28-.5-3.33-1-1.94-1-2.81-3.37-2.62-5.53.27-3,5.27-10.94,4.21-13.53-1.58-3.86-2.57-8-4.29-11.75a36.56,36.56,0,0,0-18.84-17.46,10.88,10.88,0,0,1-4.47-3.64c-8.9-4-19-3.1-28.08-6.91-7.16-2.8-13.88-6.71-21.64-8-4.55-1.35-9-2.85-13-2.85Z"/></g></svg>